<?xml version="1.0" encoding="UTF-8" ?>
<!DOCTYPE svg PUBLIC "-//W3C//DTD SVG 1.1//EN" "http://www.w3.org/Graphics/SVG/1.1/DTD/svg11.dtd">
<svg width="900pt" height="900pt" viewBox="0 0 900 900" version="1.1" xmlns="http://www.w3.org/2000/svg">
<path fill="#000000" stroke="#000000" stroke-width="0.09375" opacity="1.00" d=" M 0.0 0.0 L 900.0 0.0 L 900.0 900.0 L 0.0 900.0 L 0.0 0.0 Z" />
<path fill="#ffffff" stroke="#ffffff" stroke-width="0.09375" opacity="1.00" d=" M 2.0 2.0 C 15.7 2.0 29.3 2.0 43.0 2.0 C 43.0 15.7 43.0 29.3 43.0 43.0 C 29.3 43.0 15.7 43.0 2.0 43.0 C 2.0 29.3 2.0 15.7 2.0 2.0 Z" />
<path fill="#ffffff" stroke="#ffffff" stroke-width="0.09375" opacity="1.00" d=" M 47.0 2.0 C 60.7 2.0 74.3 2.0 88.0 2.0 C 88.0 15.7 88.0 29.3 88.0 43.0 C 74.3 43.0 60.7 43.0 47.0 43.0 C 47.0 29.3 47.0 15.7 47.0 2.0 Z" />
<path fill="#ffffff" stroke="#ffffff" stroke-width="0.09375" opacity="1.00" d=" M 92.0 2.0 C 105.7 2.0 119.3 2.0 133.0 2.0 C 133.0 15.7 133.0 29.3 133.0 43.0 C 119.3 43.0 105.7 43.0 92.0 43.0 C 92.0 29.3 92.0 15.7 92.0 2.0 Z" />
<path fill="#ffffff" stroke="#ffffff" stroke-width="0.09375" opacity="1.00" d=" M 137.0 2.0 C 150.7 2.0 164.3 2.0 178.0 2.0 C 178.0 15.7 178.0 29.3 178.0 43.0 C 164.3 43.0 150.7 43.0 137.0 43.0 C 137.0 29.3 137.0 15.7 137.0 2.0 Z" />
<path fill="#ffffff" stroke="#ffffff" stroke-width="0.09375" opacity="1.00" d=" M 182.0 2.0 C 195.7 2.0 209.3 2.0 223.0 2.0 C 223.0 15.7 223.0 29.3 223.0 43.0 C 209.3 43.0 195.7 43.0 182.0 43.0 C 182.0 29.3 182.0 15.7 182.0 2.0 Z" />
<path fill="#ffffff" stroke="#ffffff" stroke-width="0.09375" opacity="1.00" d=" M 227.0 2.0 C 240.7 2.0 254.3 2.0 268.0 2.0 C 268.0 15.7 268.0 29.3 268.0 43.0 C 254.3 43.0 240.7 43.0 227.0 43.0 C 227.0 29.3 227.0 15.7 227.0 2.0 Z" />
<path fill="#ffffff" stroke="#ffffff" stroke-width="0.09375" opacity="1.00" d=" M 272.0 2.0 C 285.7 2.0 299.3 2.0 313.0 2.0 C 313.0 15.7 313.0 29.3 313.0 43.0 C 299.3 43.0 285.7 43.0 272.0 43.0 C 272.0 29.3 272.0 15.7 272.0 2.0 Z" />
<path fill="#ffffff" stroke="#ffffff" stroke-width="0.09375" opacity="1.00" d=" M 317.0 2.0 C 330.7 2.0 344.3 2.0 358.0 2.0 C 358.0 15.7 358.0 29.3 358.0 43.0 C 344.3 43.0 330.7 43.0 317.0 43.0 C 317.0 29.3 317.0 15.7 317.0 2.0 Z" />
<path fill="#ffffff" stroke="#ffffff" stroke-width="0.09375" opacity="1.00" d=" M 362.0 2.0 C 375.7 2.0 389.3 2.0 403.0 2.0 C 403.0 15.7 403.0 29.3 403.0 43.0 C 389.3 43.0 375.7 43.0 362.0 43.0 C 362.0 29.3 362.0 15.7 362.0 2.0 Z" />
<path fill="#ffffff" stroke="#ffffff" stroke-width="0.09375" opacity="1.00" d=" M 407.0 2.0 C 420.7 2.0 434.3 2.0 448.0 2.0 C 448.0 15.7 448.0 29.3 448.0 43.0 C 434.3 43.0 420.7 43.0 407.0 43.0 C 407.0 29.3 407.0 15.7 407.0 2.0 Z" />
<path fill="#ffffff" stroke="#ffffff" stroke-width="0.09375" opacity="1.00" d=" M 452.0 2.0 C 465.7 2.0 479.3 2.0 493.0 2.0 C 493.0 15.7 493.0 29.3 493.0 43.0 C 479.3 43.0 465.7 43.0 452.0 43.0 C 452.0 29.3 452.0 15.7 452.0 2.0 Z" />
<path fill="#ffffff" stroke="#ffffff" stroke-width="0.09375" opacity="1.00" d=" M 497.0 2.0 C 510.7 2.0 524.3 2.0 538.0 2.0 C 538.0 15.7 538.0 29.3 538.0 43.0 C 524.3 43.0 510.7 43.0 497.0 43.0 C 497.0 29.3 497.0 15.7 497.0 2.0 Z" />
<path fill="#ffffff" stroke="#ffffff" stroke-width="0.09375" opacity="1.00" d=" M 542.0 2.0 C 555.7 2.0 569.3 2.0 583.0 2.0 C 583.0 15.7 583.0 29.3 583.0 43.0 C 569.3 43.0 555.7 43.0 542.0 43.0 C 542.0 29.3 542.0 15.7 542.0 2.0 Z" />
<path fill="#ffffff" stroke="#ffffff" stroke-width="0.09375" opacity="1.00" d=" M 587.0 2.0 C 600.7 2.0 614.3 2.0 628.0 2.0 C 628.0 15.7 628.0 29.3 628.0 43.0 C 614.3 43.0 600.7 43.0 587.0 43.0 C 587.0 29.3 587.0 15.7 587.0 2.0 Z" />
<path fill="#ffffff" stroke="#ffffff" stroke-width="0.09375" opacity="1.00" d=" M 632.0 2.0 C 645.7 2.0 659.3 2.0 673.0 2.0 C 673.0 15.7 673.0 29.3 673.0 43.0 C 659.3 43.0 645.7 43.0 632.0 43.0 C 632.0 29.3 632.0 15.7 632.0 2.0 Z" />
<path fill="#ffffff" stroke="#ffffff" stroke-width="0.09375" opacity="1.00" d=" M 677.0 2.0 C 690.7 2.0 704.3 2.0 718.0 2.0 C 718.0 15.7 718.0 29.3 718.0 43.0 C 704.3 43.0 690.7 43.0 677.0 43.0 C 677.0 29.3 677.0 15.7 677.0 2.0 Z" />
<path fill="#ffffff" stroke="#ffffff" stroke-width="0.09375" opacity="1.00" d=" M 722.0 2.0 C 735.7 2.0 749.3 2.0 763.0 2.0 C 763.0 15.7 763.0 29.3 763.0 43.0 C 749.3 43.0 735.7 43.0 722.0 43.0 C 722.0 29.3 722.0 15.7 722.0 2.0 Z" />
<path fill="#ffffff" stroke="#ffffff" stroke-width="0.09375" opacity="1.00" d=" M 767.0 2.0 C 780.7 2.0 794.3 2.0 808.0 2.0 C 808.0 15.7 808.0 29.3 808.0 43.0 C 794.3 43.0 780.7 43.0 767.0 43.0 C 767.0 29.3 767.0 15.7 767.0 2.0 Z" />
<path fill="#ffffff" stroke="#ffffff" stroke-width="0.09375" opacity="1.00" d=" M 812.0 2.0 C 825.7 2.0 839.3 2.0 853.0 2.0 C 853.0 15.7 853.0 29.3 853.0 43.0 C 839.3 43.0 825.7 43.0 812.0 43.0 C 812.0 29.3 812.0 15.7 812.0 2.0 Z" />
<path fill="#ffffff" stroke="#ffffff" stroke-width="0.09375" opacity="1.00" d=" M 857.0 2.0 C 870.7 2.0 884.3 2.0 898.0 2.0 C 898.0 15.7 898.0 29.3 898.0 43.0 C 884.3 43.0 870.7 43.0 857.0 43.0 C 857.0 29.3 857.0 15.7 857.0 2.0 Z" />
<path fill="#ffffff" stroke="#ffffff" stroke-width="0.09375" opacity="1.00" d=" M 2.0 47.0 C 15.7 47.0 29.3 47.0 43.0 47.0 C 43.0 60.7 43.0 74.3 43.0 88.0 C 29.3 88.0 15.7 88.0 2.0 88.0 C 2.0 74.3 2.0 60.7 2.0 47.0 Z" />
<path fill="#ffffff" stroke="#ffffff" stroke-width="0.09375" opacity="1.00" d=" M 47.0 47.0 C 60.7 47.0 74.3 47.0 88.0 47.0 C 88.0 60.7 88.0 74.3 88.0 88.0 C 74.3 88.0 60.7 88.0 47.0 88.0 C 47.0 74.3 47.0 60.7 47.0 47.0 Z" />
<path fill="#ffffff" stroke="#ffffff" stroke-width="0.09375" opacity="1.00" d=" M 92.0 47.0 C 105.7 47.0 119.3 47.0 133.0 47.0 C 133.0 60.7 133.0 74.3 133.0 88.0 C 119.3 88.0 105.7 88.0 92.0 88.0 C 92.0 74.3 92.0 60.7 92.0 47.0 Z" />
<path fill="#ffffff" stroke="#ffffff" stroke-width="0.09375" opacity="1.00" d=" M 137.0 47.0 C 150.7 47.0 164.3 47.0 178.0 47.0 C 178.0 60.7 178.0 74.3 178.0 88.0 C 164.3 88.0 150.7 88.0 137.0 88.0 C 137.0 74.3 137.0 60.7 137.0 47.0 Z" />
<path fill="#ffffff" stroke="#ffffff" stroke-width="0.09375" opacity="1.00" d=" M 182.0 47.0 C 195.7 47.0 209.3 47.0 223.0 47.0 C 223.0 60.7 223.0 74.3 223.0 88.0 C 209.3 88.0 195.7 88.0 182.0 88.0 C 182.0 74.3 182.0 60.7 182.0 47.0 Z" />
<path fill="#ffffff" stroke="#ffffff" stroke-width="0.09375" opacity="1.00" d=" M 227.0 47.0 C 240.7 47.0 254.3 47.0 268.0 47.0 C 268.0 60.7 268.0 74.3 268.0 88.0 C 254.3 88.0 240.7 88.0 227.0 88.0 C 227.0 74.3 227.0 60.7 227.0 47.0 Z" />
<path fill="#ffffff" stroke="#ffffff" stroke-width="0.09375" opacity="1.00" d=" M 272.0 47.0 C 285.7 47.0 299.3 47.0 313.0 47.0 C 313.0 60.7 313.0 74.3 313.0 88.0 C 299.3 88.0 285.7 88.0 272.0 88.0 C 272.0 74.3 272.0 60.7 272.0 47.0 Z" />
<path fill="#ffffff" stroke="#ffffff" stroke-width="0.09375" opacity="1.00" d=" M 317.0 47.0 C 330.7 47.0 344.3 47.0 358.0 47.0 C 358.0 60.7 358.0 74.3 358.0 88.0 C 344.3 88.0 330.7 88.0 317.0 88.0 C 317.0 74.3 317.0 60.7 317.0 47.0 Z" />
<path fill="#ffffff" stroke="#ffffff" stroke-width="0.09375" opacity="1.00" d=" M 362.0 47.0 C 375.7 47.0 389.3 47.0 403.0 47.0 C 403.0 60.7 403.0 74.3 403.0 88.0 C 389.3 88.0 375.7 88.0 362.0 88.0 C 362.0 74.3 362.0 60.7 362.0 47.0 Z" />
<path fill="#ffffff" stroke="#ffffff" stroke-width="0.09375" opacity="1.00" d=" M 407.0 47.0 C 420.7 47.0 434.3 47.0 448.0 47.0 C 448.0 60.7 448.0 74.3 448.0 88.0 C 434.3 88.0 420.7 88.0 407.0 88.0 C 407.0 74.3 407.0 60.7 407.0 47.0 Z" />
<path fill="#ffffff" stroke="#ffffff" stroke-width="0.09375" opacity="1.00" d=" M 452.0 47.0 C 465.7 47.0 479.3 47.0 493.0 47.0 C 493.0 60.7 493.0 74.3 493.0 88.0 C 479.3 88.0 465.7 88.0 452.0 88.0 C 452.0 74.3 452.0 60.7 452.0 47.0 Z" />
<path fill="#ffffff" stroke="#ffffff" stroke-width="0.09375" opacity="1.00" d=" M 497.0 47.0 C 510.7 47.0 524.3 47.0 538.0 47.0 C 538.0 60.7 538.0 74.3 538.0 88.0 C 524.3 88.0 510.7 88.0 497.0 88.0 C 497.0 74.3 497.0 60.7 497.0 47.0 Z" />
<path fill="#ffffff" stroke="#ffffff" stroke-width="0.09375" opacity="1.00" d=" M 542.0 47.0 C 555.7 47.0 569.3 47.0 583.0 47.0 C 583.0 60.7 583.0 74.3 583.0 88.0 C 569.3 88.0 555.7 88.0 542.0 88.0 C 542.0 74.3 542.0 60.7 542.0 47.0 Z" />
<path fill="#ffffff" stroke="#ffffff" stroke-width="0.09375" opacity="1.00" d=" M 587.0 47.0 C 600.7 47.0 614.3 47.0 628.0 47.0 C 628.0 60.7 628.0 74.3 628.0 88.0 C 614.3 88.0 600.7 88.0 587.0 88.0 C 587.0 74.3 587.0 60.7 587.0 47.0 Z" />
<path fill="#ffffff" stroke="#ffffff" stroke-width="0.09375" opacity="1.00" d=" M 632.0 47.0 C 645.7 47.0 659.3 47.0 673.0 47.0 C 673.0 60.7 673.0 74.3 673.0 88.0 C 659.3 88.0 645.7 88.0 632.0 88.0 C 632.0 74.3 632.0 60.7 632.0 47.0 Z" />
<path fill="#ffffff" stroke="#ffffff" stroke-width="0.09375" opacity="1.00" d=" M 677.0 47.0 C 690.7 47.0 704.3 47.0 718.0 47.0 C 718.0 60.7 718.0 74.3 718.0 88.0 C 704.3 88.0 690.7 88.0 677.0 88.0 C 677.0 74.3 677.0 60.7 677.0 47.0 Z" />
<path fill="#ffffff" stroke="#ffffff" stroke-width="0.09375" opacity="1.00" d=" M 722.0 47.0 C 735.7 47.0 749.3 47.0 763.0 47.0 C 763.0 60.7 763.0 74.3 763.0 88.0 C 749.3 88.0 735.7 88.0 722.0 88.0 C 722.0 74.3 722.0 60.7 722.0 47.0 Z" />
<path fill="#ffffff" stroke="#ffffff" stroke-width="0.09375" opacity="1.00" d=" M 767.0 47.0 C 780.7 47.0 794.3 47.0 808.0 47.0 C 808.0 60.7 808.0 74.3 808.0 88.0 C 794.3 88.0 780.7 88.0 767.0 88.0 C 767.0 74.3 767.0 60.7 767.0 47.0 Z" />
<path fill="#ffffff" stroke="#ffffff" stroke-width="0.09375" opacity="1.00" d=" M 812.0 47.0 C 825.7 47.0 839.3 47.0 853.0 47.0 C 853.0 60.7 853.0 74.3 853.0 88.0 C 839.3 88.0 825.7 88.0 812.0 88.0 C 812.0 74.3 812.0 60.7 812.0 47.0 Z" />
<path fill="#ffffff" stroke="#ffffff" stroke-width="0.09375" opacity="1.00" d=" M 857.0 47.0 C 870.7 47.0 884.3 47.0 898.0 47.0 C 898.0 60.7 898.0 74.3 898.0 88.0 C 884.3 88.0 870.7 88.0 857.0 88.0 C 857.0 74.3 857.0 60.7 857.0 47.0 Z" />
<path fill="#ffffff" stroke="#ffffff" stroke-width="0.09375" opacity="1.00" d=" M 2.0 92.0 C 15.7 92.0 29.3 92.0 43.0 92.0 C 43.0 105.7 43.0 119.3 43.0 133.0 C 29.3 133.0 15.7 133.0 2.0 133.0 C 2.0 119.3 2.0 105.7 2.0 92.0 Z" />
<path fill="#ffffff" stroke="#ffffff" stroke-width="0.09375" opacity="1.00" d=" M 47.0 92.0 C 60.7 92.0 74.3 92.0 88.0 92.0 C 88.0 105.7 88.0 119.3 88.0 133.0 C 74.3 133.0 60.7 133.0 47.0 133.0 C 47.0 119.3 47.0 105.7 47.0 92.0 Z" />
<path fill="#ffffff" stroke="#ffffff" stroke-width="0.09375" opacity="1.00" d=" M 92.0 92.0 C 105.7 92.0 119.3 92.0 133.0 92.0 C 133.0 105.7 133.0 119.3 133.0 133.0 C 119.3 133.0 105.7 133.0 92.0 133.0 C 92.0 119.3 92.0 105.7 92.0 92.0 Z" />
<path fill="#ffffff" stroke="#ffffff" stroke-width="0.09375" opacity="1.00" d=" M 137.0 92.0 C 150.7 92.0 164.3 92.0 178.0 92.0 C 178.0 105.7 178.0 119.3 178.0 133.0 C 164.3 133.0 150.7 133.0 137.0 133.0 C 137.0 119.3 137.0 105.7 137.0 92.0 Z" />
<path fill="#ffffff" stroke="#ffffff" stroke-width="0.09375" opacity="1.00" d=" M 182.0 92.0 C 195.7 92.0 209.3 92.0 223.0 92.0 C 223.0 105.7 223.0 119.3 223.0 133.0 C 209.3 133.0 195.7 133.0 182.0 133.0 C 182.0 119.3 182.0 105.7 182.0 92.0 Z" />
<path fill="#ffffff" stroke="#ffffff" stroke-width="0.09375" opacity="1.00" d=" M 227.0 92.0 C 240.7 92.0 254.3 92.0 268.0 92.0 C 268.0 105.7 268.0 119.3 268.0 133.0 C 254.3 133.0 240.7 133.0 227.0 133.0 C 227.0 119.3 227.0 105.7 227.0 92.0 Z" />
<path fill="#ffffff" stroke="#ffffff" stroke-width="0.09375" opacity="1.00" d=" M 272.0 92.0 C 285.7 92.0 299.3 92.0 313.0 92.0 C 313.0 105.7 313.0 119.3 313.0 133.0 C 299.3 133.0 285.7 133.0 272.0 133.0 C 272.0 119.3 272.0 105.7 272.0 92.0 Z" />
<path fill="#ffffff" stroke="#ffffff" stroke-width="0.09375" opacity="1.00" d=" M 317.0 92.0 C 330.7 92.0 344.3 92.0 358.0 92.0 C 358.0 105.7 358.0 119.3 358.0 133.0 C 344.3 133.0 330.7 133.0 317.0 133.0 C 317.0 119.3 317.0 105.7 317.0 92.0 Z" />
<path fill="#ffffff" stroke="#ffffff" stroke-width="0.09375" opacity="1.00" d=" M 362.0 92.0 C 375.7 92.0 389.3 92.0 403.0 92.0 C 403.0 105.7 403.0 119.3 403.0 133.0 C 389.3 133.0 375.7 133.0 362.0 133.0 C 362.0 119.3 362.0 105.7 362.0 92.0 Z" />
<path fill="#ffffff" stroke="#ffffff" stroke-width="0.09375" opacity="1.00" d=" M 407.0 92.0 C 420.7 92.0 434.3 92.0 448.0 92.0 C 448.0 105.7 448.0 119.3 448.0 133.0 C 434.3 133.0 420.7 133.0 407.0 133.0 C 407.0 119.3 407.0 105.7 407.0 92.0 Z" />
<path fill="#ffffff" stroke="#ffffff" stroke-width="0.09375" opacity="1.00" d=" M 452.0 92.0 C 465.7 92.0 479.3 92.0 493.0 92.0 C 493.0 105.7 493.0 119.3 493.0 133.0 C 479.3 133.0 465.7 133.0 452.0 133.0 C 452.0 119.3 452.0 105.7 452.0 92.0 Z" />
<path fill="#ffffff" stroke="#ffffff" stroke-width="0.09375" opacity="1.00" d=" M 497.0 92.0 C 510.7 92.0 524.3 92.0 538.0 92.0 C 538.0 105.7 538.0 119.3 538.0 133.0 C 524.3 133.0 510.7 133.0 497.0 133.0 C 497.0 119.3 497.0 105.7 497.0 92.0 Z" />
<path fill="#ffffff" stroke="#ffffff" stroke-width="0.09375" opacity="1.00" d=" M 542.0 92.0 C 555.7 92.0 569.3 92.0 583.0 92.0 C 583.0 105.7 583.0 119.3 583.0 133.0 C 569.3 133.0 555.7 133.0 542.0 133.0 C 542.0 119.3 542.0 105.7 542.0 92.0 Z" />
<path fill="#ffffff" stroke="#ffffff" stroke-width="0.09375" opacity="1.00" d=" M 587.0 92.0 C 600.7 92.0 614.3 92.0 628.0 92.0 C 628.0 105.7 628.0 119.3 628.0 133.0 C 614.3 133.0 600.7 133.0 587.0 133.0 C 587.0 119.3 587.0 105.7 587.0 92.0 Z" />
<path fill="#ffffff" stroke="#ffffff" stroke-width="0.09375" opacity="1.00" d=" M 632.0 92.0 C 645.7 92.0 659.3 92.0 673.0 92.0 C 673.0 105.7 673.0 119.3 673.0 133.0 C 659.3 133.0 645.7 133.0 632.0 133.0 C 632.0 119.3 632.0 105.7 632.0 92.0 Z" />
<path fill="#ffffff" stroke="#ffffff" stroke-width="0.09375" opacity="1.00" d=" M 677.0 92.0 C 690.7 92.0 704.3 92.0 718.0 92.0 C 718.0 105.7 718.0 119.3 718.0 133.0 C 704.3 133.0 690.7 133.0 677.0 133.0 C 677.0 119.3 677.0 105.7 677.0 92.0 Z" />
<path fill="#ffffff" stroke="#ffffff" stroke-width="0.09375" opacity="1.00" d=" M 722.0 92.0 C 735.7 92.0 749.3 92.0 763.0 92.0 C 763.0 105.7 763.0 119.3 763.0 133.0 C 749.3 133.0 735.7 133.0 722.0 133.0 C 722.0 119.3 722.0 105.7 722.0 92.0 Z" />
<path fill="#ffffff" stroke="#ffffff" stroke-width="0.09375" opacity="1.00" d=" M 767.0 92.0 C 780.7 92.0 794.3 92.0 808.0 92.0 C 808.0 105.7 808.0 119.3 808.0 133.0 C 794.3 133.0 780.7 133.0 767.0 133.0 C 767.0 119.3 767.0 105.7 767.0 92.0 Z" />
<path fill="#ffffff" stroke="#ffffff" stroke-width="0.09375" opacity="1.00" d=" M 812.0 92.0 C 825.7 92.0 839.3 92.0 853.0 92.0 C 853.0 105.7 853.0 119.3 853.0 133.0 C 839.3 133.0 825.7 133.0 812.0 133.0 C 812.0 119.3 812.0 105.7 812.0 92.0 Z" />
<path fill="#ffffff" stroke="#ffffff" stroke-width="0.09375" opacity="1.00" d=" M 857.0 92.0 C 870.7 92.0 884.3 92.0 898.0 92.0 C 898.0 105.7 898.0 119.3 898.0 133.0 C 884.3 133.0 870.7 133.0 857.0 133.0 C 857.0 119.3 857.0 105.7 857.0 92.0 Z" />
<path fill="#ffffff" stroke="#ffffff" stroke-width="0.09375" opacity="1.00" d=" M 2.0 137.0 C 15.7 137.0 29.3 137.0 43.0 137.0 C 43.0 150.7 43.0 164.3 43.0 178.0 C 29.3 178.0 15.7 178.0 2.0 178.0 C 2.0 164.3 2.0 150.7 2.0 137.0 Z" />
<path fill="#ffffff" stroke="#ffffff" stroke-width="0.09375" opacity="1.00" d=" M 47.0 137.0 C 60.7 137.0 74.3 137.0 88.0 137.0 C 88.0 150.7 88.0 164.3 88.0 178.0 C 74.3 178.0 60.7 178.0 47.0 178.0 C 47.0 164.3 47.0 150.7 47.0 137.0 Z" />
<path fill="#ffffff" stroke="#ffffff" stroke-width="0.09375" opacity="1.00" d=" M 92.0 137.0 C 105.7 137.0 119.3 137.0 133.0 137.0 C 133.0 150.7 133.0 164.3 133.0 178.0 C 119.3 178.0 105.7 178.0 92.0 178.0 C 92.0 164.3 92.0 150.7 92.0 137.0 Z" />
<path fill="#ffffff" stroke="#ffffff" stroke-width="0.09375" opacity="1.00" d=" M 137.0 137.0 C 150.7 137.0 164.3 137.0 178.0 137.0 C 178.0 150.7 178.0 164.3 178.0 178.0 C 164.3 178.0 150.7 178.0 137.0 178.0 C 137.0 164.3 137.0 150.7 137.0 137.0 Z" />
<path fill="#ffffff" stroke="#ffffff" stroke-width="0.09375" opacity="1.00" d=" M 182.0 137.0 C 195.7 137.0 209.3 137.0 223.0 137.0 C 223.0 150.7 223.0 164.3 223.0 178.0 C 209.3 178.0 195.7 178.0 182.0 178.0 C 182.0 164.3 182.0 150.7 182.0 137.0 Z" />
<path fill="#ffffff" stroke="#ffffff" stroke-width="0.09375" opacity="1.00" d=" M 227.0 137.0 C 240.7 137.0 254.3 137.0 268.0 137.0 C 268.0 150.7 268.0 164.3 268.0 178.0 C 254.3 178.0 240.7 178.0 227.0 178.0 C 227.0 164.3 227.0 150.7 227.0 137.0 Z" />
<path fill="#ffffff" stroke="#ffffff" stroke-width="0.09375" opacity="1.00" d=" M 272.0 137.0 C 285.7 137.0 299.3 137.0 313.0 137.0 C 313.0 150.7 313.0 164.3 313.0 178.0 C 299.3 178.0 285.7 178.0 272.0 178.0 C 272.0 164.3 272.0 150.7 272.0 137.0 Z" />
<path fill="#ffffff" stroke="#ffffff" stroke-width="0.09375" opacity="1.00" d=" M 317.0 137.0 C 330.7 137.0 344.3 137.0 358.0 137.0 C 358.0 150.7 358.0 164.3 358.0 178.0 C 344.3 178.0 330.7 178.0 317.0 178.0 C 317.0 164.3 317.0 150.7 317.0 137.0 Z" />
<path fill="#ffffff" stroke="#ffffff" stroke-width="0.09375" opacity="1.00" d=" M 362.0 137.0 C 375.7 137.0 389.3 137.0 403.0 137.0 C 403.0 150.7 403.0 164.3 403.0 178.0 C 389.3 178.0 375.7 178.0 362.0 178.0 C 362.0 164.3 362.0 150.7 362.0 137.0 Z" />
<path fill="#ffffff" stroke="#ffffff" stroke-width="0.09375" opacity="1.00" d=" M 407.0 137.0 C 420.7 137.0 434.3 137.0 448.0 137.0 C 448.0 150.7 448.0 164.3 448.0 178.0 C 434.3 178.0 420.7 178.0 407.0 178.0 C 407.0 164.3 407.0 150.7 407.0 137.0 Z" />
<path fill="#ffffff" stroke="#ffffff" stroke-width="0.09375" opacity="1.00" d=" M 452.0 137.0 C 465.7 137.0 479.3 137.0 493.0 137.0 C 493.0 150.7 493.0 164.3 493.0 178.0 C 479.3 178.0 465.7 178.0 452.0 178.0 C 452.0 164.3 452.0 150.7 452.0 137.0 Z" />
<path fill="#ffffff" stroke="#ffffff" stroke-width="0.09375" opacity="1.00" d=" M 497.0 137.0 C 510.7 137.0 524.3 137.0 538.0 137.0 C 538.0 150.7 538.0 164.3 538.0 178.0 C 524.3 178.0 510.7 178.0 497.0 178.0 C 497.0 164.3 497.0 150.7 497.0 137.0 Z" />
<path fill="#ffffff" stroke="#ffffff" stroke-width="0.09375" opacity="1.00" d=" M 542.0 137.0 C 555.7 137.0 569.3 137.0 583.0 137.0 C 583.0 150.7 583.0 164.3 583.0 178.0 C 569.3 178.0 555.7 178.0 542.0 178.0 C 542.0 164.3 542.0 150.7 542.0 137.0 Z" />
<path fill="#ffffff" stroke="#ffffff" stroke-width="0.09375" opacity="1.00" d=" M 587.0 137.0 C 600.7 137.0 614.3 137.0 628.0 137.0 C 628.0 150.7 628.0 164.3 628.0 178.0 C 614.3 178.0 600.7 178.0 587.0 178.0 C 587.0 164.3 587.0 150.7 587.0 137.0 Z" />
<path fill="#ffffff" stroke="#ffffff" stroke-width="0.09375" opacity="1.00" d=" M 632.0 137.0 C 645.7 137.0 659.3 137.0 673.0 137.0 C 673.0 150.7 673.0 164.3 673.0 178.0 C 659.3 178.0 645.7 178.0 632.0 178.0 C 632.0 164.3 632.0 150.7 632.0 137.0 Z" />
<path fill="#ffffff" stroke="#ffffff" stroke-width="0.09375" opacity="1.00" d=" M 677.0 137.0 C 690.7 137.0 704.3 137.0 718.0 137.0 C 718.0 150.7 718.0 164.3 718.0 178.0 C 704.3 178.0 690.7 178.0 677.0 178.0 C 677.0 164.3 677.0 150.7 677.0 137.0 Z" />
<path fill="#ffffff" stroke="#ffffff" stroke-width="0.09375" opacity="1.00" d=" M 722.0 137.0 C 735.7 137.0 749.3 137.0 763.0 137.0 C 763.0 150.7 763.0 164.3 763.0 178.0 C 749.3 178.0 735.7 178.0 722.0 178.0 C 722.0 164.3 722.0 150.7 722.0 137.0 Z" />
<path fill="#ffffff" stroke="#ffffff" stroke-width="0.09375" opacity="1.00" d=" M 767.0 137.0 C 780.7 137.0 794.3 137.0 808.0 137.0 C 808.0 150.7 808.0 164.3 808.0 178.0 C 794.3 178.0 780.7 178.0 767.0 178.0 C 767.0 164.3 767.0 150.7 767.0 137.0 Z" />
<path fill="#ffffff" stroke="#ffffff" stroke-width="0.09375" opacity="1.00" d=" M 812.0 137.0 C 825.7 137.0 839.3 137.0 853.0 137.0 C 853.0 150.7 853.0 164.3 853.0 178.0 C 839.3 178.0 825.7 178.0 812.0 178.0 C 812.0 164.3 812.0 150.7 812.0 137.0 Z" />
<path fill="#ffffff" stroke="#ffffff" stroke-width="0.09375" opacity="1.00" d=" M 857.0 137.0 C 870.7 137.0 884.3 137.0 898.0 137.0 C 898.0 150.7 898.0 164.3 898.0 178.0 C 884.3 178.0 870.7 178.0 857.0 178.0 C 857.0 164.3 857.0 150.7 857.0 137.0 Z" />
<path fill="#ffffff" stroke="#ffffff" stroke-width="0.09375" opacity="1.00" d=" M 2.0 182.0 C 15.7 182.0 29.3 182.0 43.0 182.0 C 43.0 195.7 43.0 209.3 43.0 223.0 C 29.3 223.0 15.7 223.0 2.0 223.0 C 2.0 209.3 2.0 195.7 2.0 182.0 Z" />
<path fill="#ffffff" stroke="#ffffff" stroke-width="0.09375" opacity="1.00" d=" M 47.0 182.0 C 60.7 182.0 74.3 182.0 88.0 182.0 C 88.0 195.7 88.0 209.3 88.0 223.0 C 74.3 223.0 60.7 223.0 47.0 223.0 C 47.0 209.3 47.0 195.7 47.0 182.0 Z" />
<path fill="#ffffff" stroke="#ffffff" stroke-width="0.09375" opacity="1.00" d=" M 92.0 182.0 C 105.7 182.0 119.3 182.0 133.0 182.0 C 133.0 195.7 133.0 209.3 133.0 223.0 C 119.3 223.0 105.7 223.0 92.0 223.0 C 92.0 209.3 92.0 195.7 92.0 182.0 Z" />
<path fill="#ffffff" stroke="#ffffff" stroke-width="0.09375" opacity="1.00" d=" M 137.0 182.0 C 150.7 182.0 164.3 182.0 178.0 182.0 C 178.0 195.7 178.0 209.3 178.0 223.0 C 164.3 223.0 150.7 223.0 137.0 223.0 C 137.0 209.3 137.0 195.7 137.0 182.0 Z" />
<path fill="#ffffff" stroke="#ffffff" stroke-width="0.09375" opacity="1.00" d=" M 182.0 182.0 C 195.7 182.0 209.3 182.0 223.0 182.0 C 223.0 195.7 223.0 209.3 223.0 223.0 C 209.3 223.0 195.7 223.0 182.0 223.0 C 182.0 209.3 182.0 195.7 182.0 182.0 Z" />
<path fill="#ffffff" stroke="#ffffff" stroke-width="0.09375" opacity="1.00" d=" M 227.0 182.0 C 240.7 182.0 254.3 182.0 268.0 182.0 C 268.0 195.7 268.0 209.3 268.0 223.0 C 254.3 223.0 240.7 223.0 227.0 223.0 C 227.0 209.3 227.0 195.7 227.0 182.0 Z" />
<path fill="#ffffff" stroke="#ffffff" stroke-width="0.09375" opacity="1.00" d=" M 272.0 182.0 C 285.7 182.0 299.3 182.0 313.0 182.0 C 313.0 195.7 313.0 209.3 313.0 223.0 C 299.3 223.0 285.7 223.0 272.0 223.0 C 272.0 209.3 272.0 195.7 272.0 182.0 Z" />
<path fill="#ffffff" stroke="#ffffff" stroke-width="0.09375" opacity="1.00" d=" M 317.0 182.0 C 330.7 182.0 344.3 182.0 358.0 182.0 C 358.0 195.7 358.0 209.3 358.0 223.0 C 344.3 223.0 330.7 223.0 317.0 223.0 C 317.0 209.3 317.0 195.7 317.0 182.0 Z" />
<path fill="#ffffff" stroke="#ffffff" stroke-width="0.09375" opacity="1.00" d=" M 362.0 182.0 C 375.7 182.0 389.3 182.0 403.0 182.0 C 403.0 195.7 403.0 209.3 403.0 223.0 C 389.3 223.0 375.7 223.0 362.0 223.0 C 362.0 209.3 362.0 195.7 362.0 182.0 Z" />
<path fill="#ffffff" stroke="#ffffff" stroke-width="0.09375" opacity="1.00" d=" M 407.0 182.0 C 420.7 182.0 434.3 182.0 448.0 182.0 C 448.0 195.7 448.0 209.3 448.0 223.0 C 434.3 223.0 420.7 223.0 407.0 223.0 C 407.0 209.3 407.0 195.7 407.0 182.0 Z" />
<path fill="#ffffff" stroke="#ffffff" stroke-width="0.09375" opacity="1.00" d=" M 452.0 182.0 C 465.7 182.0 479.3 182.0 493.0 182.0 C 493.0 195.7 493.0 209.3 493.0 223.0 C 479.3 223.0 465.7 223.0 452.0 223.0 C 452.0 209.3 452.0 195.7 452.0 182.0 Z" />
<path fill="#ffffff" stroke="#ffffff" stroke-width="0.09375" opacity="1.00" d=" M 497.0 182.0 C 510.7 182.0 524.3 182.0 538.0 182.0 C 538.0 195.7 538.0 209.3 538.0 223.0 C 524.3 223.0 510.7 223.0 497.0 223.0 C 497.0 209.3 497.0 195.7 497.0 182.0 Z" />
<path fill="#ffffff" stroke="#ffffff" stroke-width="0.09375" opacity="1.00" d=" M 542.0 182.0 C 555.7 182.0 569.3 182.0 583.0 182.0 C 583.0 195.7 583.0 209.3 583.0 223.0 C 569.3 223.0 555.7 223.0 542.0 223.0 C 542.0 209.3 542.0 195.7 542.0 182.0 Z" />
<path fill="#ffffff" stroke="#ffffff" stroke-width="0.09375" opacity="1.00" d=" M 587.0 182.0 C 600.7 182.0 614.3 182.0 628.0 182.0 C 628.0 195.7 628.0 209.3 628.0 223.0 C 614.3 223.0 600.7 223.0 587.0 223.0 C 587.0 209.3 587.0 195.7 587.0 182.0 Z" />
<path fill="#ffffff" stroke="#ffffff" stroke-width="0.09375" opacity="1.00" d=" M 632.0 182.0 C 645.7 182.0 659.3 182.0 673.0 182.0 C 673.0 195.7 673.0 209.3 673.0 223.0 C 659.3 223.0 645.7 223.0 632.0 223.0 C 632.0 209.3 632.0 195.7 632.0 182.0 Z" />
<path fill="#ffffff" stroke="#ffffff" stroke-width="0.09375" opacity="1.00" d=" M 677.0 182.0 C 690.7 182.0 704.3 182.0 718.0 182.0 C 718.0 195.7 718.0 209.3 718.0 223.0 C 704.3 223.0 690.7 223.0 677.0 223.0 C 677.0 209.3 677.0 195.7 677.0 182.0 Z" />
<path fill="#ffffff" stroke="#ffffff" stroke-width="0.09375" opacity="1.00" d=" M 722.0 182.0 C 735.7 182.0 749.3 182.0 763.0 182.0 C 763.0 195.7 763.0 209.3 763.0 223.0 C 749.3 223.0 735.7 223.0 722.0 223.0 C 722.0 209.3 722.0 195.7 722.0 182.0 Z" />
<path fill="#ffffff" stroke="#ffffff" stroke-width="0.09375" opacity="1.00" d=" M 767.0 182.0 C 780.7 182.0 794.3 182.0 808.0 182.0 C 808.0 195.7 808.0 209.3 808.0 223.0 C 794.3 223.0 780.7 223.0 767.0 223.0 C 767.0 209.3 767.0 195.7 767.0 182.0 Z" />
<path fill="#ffffff" stroke="#ffffff" stroke-width="0.09375" opacity="1.00" d=" M 812.0 182.0 C 825.7 182.0 839.3 182.0 853.0 182.0 C 853.0 195.7 853.0 209.3 853.0 223.0 C 839.3 223.0 825.7 223.0 812.0 223.0 C 812.0 209.3 812.0 195.7 812.0 182.0 Z" />
<path fill="#ffffff" stroke="#ffffff" stroke-width="0.09375" opacity="1.00" d=" M 857.0 182.0 C 870.7 182.0 884.3 182.0 898.0 182.0 C 898.0 195.7 898.0 209.3 898.0 223.0 C 884.3 223.0 870.7 223.0 857.0 223.0 C 857.0 209.3 857.0 195.7 857.0 182.0 Z" />
<path fill="#ffffff" stroke="#ffffff" stroke-width="0.09375" opacity="1.00" d=" M 2.0 227.0 C 15.7 227.0 29.3 227.0 43.0 227.0 C 43.0 240.7 43.0 254.3 43.0 268.0 C 29.3 268.0 15.7 268.0 2.0 268.0 C 2.0 254.3 2.0 240.7 2.0 227.0 Z" />
<path fill="#ffffff" stroke="#ffffff" stroke-width="0.09375" opacity="1.00" d=" M 47.0 227.0 C 60.7 227.0 74.3 227.0 88.0 227.0 C 88.0 240.7 88.0 254.3 88.0 268.0 C 74.3 268.0 60.7 268.0 47.0 268.0 C 47.0 254.3 47.0 240.7 47.0 227.0 Z" />
<path fill="#ffffff" stroke="#ffffff" stroke-width="0.09375" opacity="1.00" d=" M 92.0 227.0 C 105.7 227.0 119.3 227.0 133.0 227.0 C 133.0 240.7 133.0 254.3 133.0 268.0 C 119.3 268.0 105.7 268.0 92.0 268.0 C 92.0 254.3 92.0 240.7 92.0 227.0 Z" />
<path fill="#ffffff" stroke="#ffffff" stroke-width="0.09375" opacity="1.00" d=" M 137.0 227.0 C 150.7 227.0 164.3 227.0 178.0 227.0 C 178.0 240.7 178.0 254.3 178.0 268.0 C 164.3 268.0 150.7 268.0 137.0 268.0 C 137.0 254.3 137.0 240.7 137.0 227.0 Z" />
<path fill="#ffffff" stroke="#ffffff" stroke-width="0.09375" opacity="1.00" d=" M 182.0 227.0 C 195.7 227.0 209.3 227.0 223.0 227.0 C 223.0 240.7 223.0 254.3 223.0 268.0 C 209.3 268.0 195.7 268.0 182.0 268.0 C 182.0 254.3 182.0 240.7 182.0 227.0 Z" />
<path fill="#ffffff" stroke="#ffffff" stroke-width="0.09375" opacity="1.00" d=" M 227.0 227.0 C 240.7 227.0 254.3 227.0 268.0 227.0 C 268.0 240.7 268.0 254.3 268.0 268.0 C 254.3 268.0 240.7 268.0 227.0 268.0 C 227.0 254.3 227.0 240.7 227.0 227.0 Z" />
<path fill="#ffffff" stroke="#ffffff" stroke-width="0.09375" opacity="1.00" d=" M 272.0 227.0 C 285.7 227.0 299.3 227.0 313.0 227.0 C 313.0 240.7 313.0 254.3 313.0 268.0 C 299.3 268.0 285.7 268.0 272.0 268.0 C 272.0 254.3 272.0 240.7 272.0 227.0 Z" />
<path fill="#ffffff" stroke="#ffffff" stroke-width="0.09375" opacity="1.00" d=" M 317.0 227.0 C 330.7 227.0 344.3 227.0 358.0 227.0 C 358.0 240.7 358.0 254.3 358.0 268.0 C 344.3 268.0 330.7 268.0 317.0 268.0 C 317.0 254.3 317.0 240.7 317.0 227.0 Z" />
<path fill="#ffffff" stroke="#ffffff" stroke-width="0.09375" opacity="1.00" d=" M 362.0 227.0 C 375.7 227.0 389.3 227.0 403.0 227.0 C 403.0 240.7 403.0 254.3 403.0 268.0 C 389.3 268.0 375.7 268.0 362.0 268.0 C 362.0 254.3 362.0 240.7 362.0 227.0 Z" />
<path fill="#ffffff" stroke="#ffffff" stroke-width="0.09375" opacity="1.00" d=" M 407.0 227.0 C 420.7 227.0 434.3 227.0 448.0 227.0 C 448.0 240.7 448.0 254.3 448.0 268.0 C 434.3 268.0 420.7 268.0 407.0 268.0 C 407.0 254.3 407.0 240.7 407.0 227.0 Z" />
<path fill="#ffffff" stroke="#ffffff" stroke-width="0.09375" opacity="1.00" d=" M 452.0 227.0 C 465.7 227.0 479.3 227.0 493.0 227.0 C 493.0 240.7 493.0 254.3 493.0 268.0 C 479.3 268.0 465.7 268.0 452.0 268.0 C 452.0 254.3 452.0 240.7 452.0 227.0 Z" />
<path fill="#ffffff" stroke="#ffffff" stroke-width="0.09375" opacity="1.00" d=" M 497.0 227.0 C 510.7 227.0 524.3 227.0 538.0 227.0 C 538.0 240.7 538.0 254.3 538.0 268.0 C 524.3 268.0 510.7 268.0 497.0 268.0 C 497.0 254.3 497.0 240.7 497.0 227.0 Z" />
<path fill="#ffffff" stroke="#ffffff" stroke-width="0.09375" opacity="1.00" d=" M 542.0 227.0 C 555.7 227.0 569.3 227.0 583.0 227.0 C 583.0 240.7 583.0 254.3 583.0 268.0 C 569.3 268.0 555.7 268.0 542.0 268.0 C 542.0 254.3 542.0 240.7 542.0 227.0 Z" />
<path fill="#ffffff" stroke="#ffffff" stroke-width="0.09375" opacity="1.00" d=" M 587.0 227.0 C 600.7 227.0 614.3 227.0 628.0 227.0 C 628.0 240.7 628.0 254.3 628.0 268.0 C 614.3 268.0 600.7 268.0 587.0 268.0 C 587.0 254.3 587.0 240.7 587.0 227.0 Z" />
<path fill="#ffffff" stroke="#ffffff" stroke-width="0.09375" opacity="1.00" d=" M 632.0 227.0 C 645.7 227.0 659.3 227.0 673.0 227.0 C 673.0 240.7 673.0 254.3 673.0 268.0 C 659.3 268.0 645.7 268.0 632.0 268.0 C 632.0 254.3 632.0 240.7 632.0 227.0 Z" />
<path fill="#ffffff" stroke="#ffffff" stroke-width="0.09375" opacity="1.00" d=" M 677.0 227.0 C 690.7 227.0 704.3 227.0 718.0 227.0 C 718.0 240.7 718.0 254.3 718.0 268.0 C 704.3 268.0 690.7 268.0 677.0 268.0 C 677.0 254.3 677.0 240.7 677.0 227.0 Z" />
<path fill="#ffffff" stroke="#ffffff" stroke-width="0.09375" opacity="1.00" d=" M 722.0 227.0 C 735.7 227.0 749.3 227.0 763.0 227.0 C 763.0 240.7 763.0 254.3 763.0 268.0 C 749.3 268.0 735.7 268.0 722.0 268.0 C 722.0 254.3 722.0 240.7 722.0 227.0 Z" />
<path fill="#ffffff" stroke="#ffffff" stroke-width="0.09375" opacity="1.00" d=" M 767.0 227.0 C 780.7 227.0 794.3 227.0 808.0 227.0 C 808.0 240.7 808.0 254.3 808.0 268.0 C 794.3 268.0 780.7 268.0 767.0 268.0 C 767.0 254.3 767.0 240.7 767.0 227.0 Z" />
<path fill="#ffffff" stroke="#ffffff" stroke-width="0.09375" opacity="1.00" d=" M 812.0 227.0 C 825.7 227.0 839.3 227.0 853.0 227.0 C 853.0 240.7 853.0 254.3 853.0 268.0 C 839.3 268.0 825.7 268.0 812.0 268.0 C 812.0 254.3 812.0 240.7 812.0 227.0 Z" />
<path fill="#ffffff" stroke="#ffffff" stroke-width="0.09375" opacity="1.00" d=" M 857.0 227.0 C 870.7 227.0 884.3 227.0 898.0 227.0 C 898.0 240.7 898.0 254.3 898.0 268.0 C 884.3 268.0 870.7 268.0 857.0 268.0 C 857.0 254.3 857.0 240.7 857.0 227.0 Z" />
<path fill="#ffffff" stroke="#ffffff" stroke-width="0.09375" opacity="1.00" d=" M 2.0 272.0 C 15.7 272.0 29.3 272.0 43.0 272.0 C 43.0 285.7 43.0 299.3 43.0 313.0 C 29.3 313.0 15.7 313.0 2.0 313.0 C 2.0 299.3 2.0 285.7 2.0 272.0 Z" />
<path fill="#ffffff" stroke="#ffffff" stroke-width="0.09375" opacity="1.00" d=" M 47.0 272.0 C 60.7 272.0 74.3 272.0 88.0 272.0 C 88.0 285.7 88.0 299.3 88.0 313.0 C 74.3 313.0 60.7 313.0 47.0 313.0 C 47.0 299.3 47.0 285.7 47.0 272.0 Z" />
<path fill="#ffffff" stroke="#ffffff" stroke-width="0.09375" opacity="1.00" d=" M 92.0 272.0 C 105.7 272.0 119.3 272.0 133.0 272.0 C 133.0 285.7 133.0 299.3 133.0 313.0 C 119.3 313.0 105.7 313.0 92.0 313.0 C 92.0 299.3 92.0 285.7 92.0 272.0 Z" />
<path fill="#ffffff" stroke="#ffffff" stroke-width="0.09375" opacity="1.00" d=" M 137.0 272.0 C 150.7 272.0 164.3 272.0 178.0 272.0 C 178.0 285.7 178.0 299.3 178.0 313.0 C 164.3 313.0 150.7 313.0 137.0 313.0 C 137.0 299.3 137.0 285.7 137.0 272.0 Z" />
<path fill="#ffffff" stroke="#ffffff" stroke-width="0.09375" opacity="1.00" d=" M 182.0 272.0 C 195.7 272.0 209.3 272.0 223.0 272.0 C 223.0 285.7 223.0 299.3 223.0 313.0 C 209.3 313.0 195.7 313.0 182.0 313.0 C 182.0 299.3 182.0 285.7 182.0 272.0 Z" />
<path fill="#ffffff" stroke="#ffffff" stroke-width="0.09375" opacity="1.00" d=" M 227.0 272.0 C 240.7 272.0 254.3 272.0 268.0 272.0 C 268.0 285.7 268.0 299.3 268.0 313.0 C 254.3 313.0 240.7 313.0 227.0 313.0 C 227.0 299.3 227.0 285.7 227.0 272.0 Z" />
<path fill="#ffffff" stroke="#ffffff" stroke-width="0.09375" opacity="1.00" d=" M 272.0 272.0 C 285.7 272.0 299.3 272.0 313.0 272.0 C 313.0 285.7 313.0 299.3 313.0 313.0 C 299.3 313.0 285.7 313.0 272.0 313.0 C 272.0 299.3 272.0 285.7 272.0 272.0 Z" />
<path fill="#ffffff" stroke="#ffffff" stroke-width="0.09375" opacity="1.00" d=" M 317.0 272.0 C 330.7 272.0 344.3 272.0 358.0 272.0 C 358.0 285.7 358.0 299.3 358.0 313.0 C 344.3 313.0 330.7 313.0 317.0 313.0 C 317.0 299.3 317.0 285.7 317.0 272.0 Z" />
<path fill="#ffffff" stroke="#ffffff" stroke-width="0.09375" opacity="1.00" d=" M 362.0 272.0 C 375.7 272.0 389.3 272.0 403.0 272.0 C 403.0 285.7 403.0 299.3 403.0 313.0 C 389.3 313.0 375.7 313.0 362.0 313.0 C 362.0 299.3 362.0 285.7 362.0 272.0 Z" />
<path fill="#ffffff" stroke="#ffffff" stroke-width="0.09375" opacity="1.00" d=" M 407.0 272.0 C 420.7 272.0 434.3 272.0 448.0 272.0 C 448.0 285.7 448.0 299.3 448.0 313.0 C 434.3 313.0 420.7 313.0 407.0 313.0 C 407.0 299.3 407.0 285.7 407.0 272.0 Z" />
<path fill="#ffffff" stroke="#ffffff" stroke-width="0.09375" opacity="1.00" d=" M 452.0 272.0 C 465.7 272.0 479.3 272.0 493.0 272.0 C 493.0 285.7 493.0 299.3 493.0 313.0 C 479.3 313.0 465.7 313.0 452.0 313.0 C 452.0 299.3 452.0 285.7 452.0 272.0 Z" />
<path fill="#ffffff" stroke="#ffffff" stroke-width="0.09375" opacity="1.00" d=" M 497.0 272.0 C 510.7 272.0 524.3 272.0 538.0 272.0 C 538.0 285.7 538.0 299.3 538.0 313.0 C 524.3 313.0 510.7 313.0 497.0 313.0 C 497.0 299.3 497.0 285.7 497.0 272.0 Z" />
<path fill="#ffffff" stroke="#ffffff" stroke-width="0.09375" opacity="1.00" d=" M 542.0 272.0 C 555.7 272.0 569.3 272.0 583.0 272.0 C 583.0 285.7 583.0 299.3 583.0 313.0 C 569.3 313.0 555.7 313.0 542.0 313.0 C 542.0 299.3 542.0 285.7 542.0 272.0 Z" />
<path fill="#ffffff" stroke="#ffffff" stroke-width="0.09375" opacity="1.00" d=" M 587.0 272.0 C 600.7 272.0 614.3 272.0 628.0 272.0 C 628.0 285.7 628.0 299.3 628.0 313.0 C 614.3 313.0 600.7 313.0 587.0 313.0 C 587.0 299.3 587.0 285.7 587.0 272.0 Z" />
<path fill="#ffffff" stroke="#ffffff" stroke-width="0.09375" opacity="1.00" d=" M 632.0 272.0 C 645.7 272.0 659.3 272.0 673.0 272.0 C 673.0 285.7 673.0 299.3 673.0 313.0 C 659.3 313.0 645.7 313.0 632.0 313.0 C 632.0 299.3 632.0 285.7 632.0 272.0 Z" />
<path fill="#ffffff" stroke="#ffffff" stroke-width="0.09375" opacity="1.00" d=" M 677.0 272.0 C 690.7 272.0 704.3 272.0 718.0 272.0 C 718.0 285.7 718.0 299.3 718.0 313.0 C 704.3 313.0 690.7 313.0 677.0 313.0 C 677.0 299.3 677.0 285.7 677.0 272.0 Z" />
<path fill="#ffffff" stroke="#ffffff" stroke-width="0.09375" opacity="1.00" d=" M 722.0 272.0 C 735.7 272.0 749.3 272.0 763.0 272.0 C 763.0 285.7 763.0 299.3 763.0 313.0 C 749.3 313.0 735.7 313.0 722.0 313.0 C 722.0 299.3 722.0 285.7 722.0 272.0 Z" />
<path fill="#ffffff" stroke="#ffffff" stroke-width="0.09375" opacity="1.00" d=" M 767.0 272.0 C 780.7 272.0 794.3 272.0 808.0 272.0 C 808.0 285.7 808.0 299.3 808.0 313.0 C 794.3 313.0 780.7 313.0 767.0 313.0 C 767.0 299.3 767.0 285.7 767.0 272.0 Z" />
<path fill="#ffffff" stroke="#ffffff" stroke-width="0.09375" opacity="1.00" d=" M 812.0 272.0 C 825.7 272.0 839.3 272.0 853.0 272.0 C 853.0 285.7 853.0 299.3 853.0 313.0 C 839.3 313.0 825.7 313.0 812.0 313.0 C 812.0 299.3 812.0 285.7 812.0 272.0 Z" />
<path fill="#ffffff" stroke="#ffffff" stroke-width="0.09375" opacity="1.00" d=" M 857.0 272.0 C 870.7 272.0 884.3 272.0 898.0 272.0 C 898.0 285.7 898.0 299.3 898.0 313.0 C 884.3 313.0 870.7 313.0 857.0 313.0 C 857.0 299.3 857.0 285.7 857.0 272.0 Z" />
<path fill="#ffffff" stroke="#ffffff" stroke-width="0.09375" opacity="1.00" d=" M 2.0 317.0 C 15.7 317.0 29.3 317.0 43.0 317.0 C 43.0 330.7 43.0 344.3 43.0 358.0 C 29.3 358.0 15.7 358.0 2.0 358.0 C 2.0 344.3 2.0 330.7 2.0 317.0 Z" />
<path fill="#ffffff" stroke="#ffffff" stroke-width="0.09375" opacity="1.00" d=" M 47.0 317.0 C 60.7 317.0 74.3 317.0 88.0 317.0 C 88.0 330.7 88.0 344.3 88.0 358.0 C 74.3 358.0 60.7 358.0 47.0 358.0 C 47.0 344.3 47.0 330.7 47.0 317.0 Z" />
<path fill="#ffffff" stroke="#ffffff" stroke-width="0.09375" opacity="1.00" d=" M 92.0 317.0 C 105.7 317.0 119.3 317.0 133.0 317.0 C 133.0 330.7 133.0 344.3 133.0 358.0 C 119.3 358.0 105.7 358.0 92.0 358.0 C 92.0 344.3 92.0 330.7 92.0 317.0 Z" />
<path fill="#ffffff" stroke="#ffffff" stroke-width="0.09375" opacity="1.00" d=" M 137.0 317.0 C 150.7 317.0 164.3 317.0 178.0 317.0 C 178.0 330.7 178.0 344.3 178.0 358.0 C 164.3 358.0 150.7 358.0 137.0 358.0 C 137.0 344.3 137.0 330.7 137.0 317.0 Z" />
<path fill="#ffffff" stroke="#ffffff" stroke-width="0.09375" opacity="1.00" d=" M 182.0 317.0 C 195.7 317.0 209.3 317.0 223.0 317.0 C 223.0 330.7 223.0 344.3 223.0 358.0 C 209.3 358.0 195.7 358.0 182.0 358.0 C 182.0 344.3 182.0 330.7 182.0 317.0 Z" />
<path fill="#ffffff" stroke="#ffffff" stroke-width="0.09375" opacity="1.00" d=" M 227.0 317.0 C 240.7 317.0 254.3 317.0 268.0 317.0 C 268.0 330.7 268.0 344.3 268.0 358.0 C 254.3 358.0 240.7 358.0 227.0 358.0 C 227.0 344.3 227.0 330.7 227.0 317.0 Z" />
<path fill="#ffffff" stroke="#ffffff" stroke-width="0.09375" opacity="1.00" d=" M 272.0 317.0 C 285.7 317.0 299.3 317.0 313.0 317.0 C 313.0 330.7 313.0 344.3 313.0 358.0 C 299.3 358.0 285.7 358.0 272.0 358.0 C 272.0 344.3 272.0 330.7 272.0 317.0 Z" />
<path fill="#ffffff" stroke="#ffffff" stroke-width="0.09375" opacity="1.00" d=" M 317.0 317.0 C 330.7 317.0 344.3 317.0 358.0 317.0 C 358.0 330.7 358.0 344.3 358.0 358.0 C 344.3 358.0 330.7 358.0 317.0 358.0 C 317.0 344.3 317.0 330.7 317.0 317.0 Z" />
<path fill="#ffffff" stroke="#ffffff" stroke-width="0.09375" opacity="1.00" d=" M 362.0 317.0 C 375.7 317.0 389.3 317.0 403.0 317.0 C 403.0 330.7 403.0 344.3 403.0 358.0 C 389.3 358.0 375.7 358.0 362.0 358.0 C 362.0 344.3 362.0 330.7 362.0 317.0 Z" />
<path fill="#ffffff" stroke="#ffffff" stroke-width="0.09375" opacity="1.00" d=" M 407.0 317.0 C 420.7 317.0 434.3 317.0 448.0 317.0 C 448.0 330.7 448.0 344.3 448.0 358.0 C 434.3 358.0 420.7 358.0 407.0 358.0 C 407.0 344.3 407.0 330.7 407.0 317.0 Z" />
<path fill="#ffffff" stroke="#ffffff" stroke-width="0.09375" opacity="1.00" d=" M 452.0 317.0 C 465.7 317.0 479.3 317.0 493.0 317.0 C 493.0 330.7 493.0 344.3 493.0 358.0 C 479.3 358.0 465.7 358.0 452.0 358.0 C 452.0 344.3 452.0 330.7 452.0 317.0 Z" />
<path fill="#ffffff" stroke="#ffffff" stroke-width="0.09375" opacity="1.00" d=" M 497.0 317.0 C 510.7 317.0 524.3 317.0 538.0 317.0 C 538.0 330.7 538.0 344.3 538.0 358.0 C 524.3 358.0 510.7 358.0 497.0 358.0 C 497.0 344.3 497.0 330.7 497.0 317.0 Z" />
<path fill="#ffffff" stroke="#ffffff" stroke-width="0.09375" opacity="1.00" d=" M 542.0 317.0 C 555.7 317.0 569.3 317.0 583.0 317.0 C 583.0 330.7 583.0 344.3 583.0 358.0 C 569.3 358.0 555.7 358.0 542.0 358.0 C 542.0 344.3 542.0 330.7 542.0 317.0 Z" />
<path fill="#ffffff" stroke="#ffffff" stroke-width="0.09375" opacity="1.00" d=" M 587.0 317.0 C 600.7 317.0 614.3 317.0 628.0 317.0 C 628.0 330.7 628.0 344.3 628.0 358.0 C 614.3 358.0 600.7 358.0 587.0 358.0 C 587.0 344.3 587.0 330.7 587.0 317.0 Z" />
<path fill="#ffffff" stroke="#ffffff" stroke-width="0.09375" opacity="1.00" d=" M 632.0 317.0 C 645.7 317.0 659.3 317.0 673.0 317.0 C 673.0 330.7 673.0 344.3 673.0 358.0 C 659.3 358.0 645.7 358.0 632.0 358.0 C 632.0 344.3 632.0 330.7 632.0 317.0 Z" />
<path fill="#ffffff" stroke="#ffffff" stroke-width="0.09375" opacity="1.00" d=" M 677.0 317.0 C 690.7 317.0 704.3 317.0 718.0 317.0 C 718.0 330.7 718.0 344.3 718.0 358.0 C 704.3 358.0 690.7 358.0 677.0 358.0 C 677.0 344.3 677.0 330.7 677.0 317.0 Z" />
<path fill="#ffffff" stroke="#ffffff" stroke-width="0.09375" opacity="1.00" d=" M 722.0 317.0 C 735.7 317.0 749.3 317.0 763.0 317.0 C 763.0 330.7 763.0 344.3 763.0 358.0 C 749.3 358.0 735.7 358.0 722.0 358.0 C 722.0 344.3 722.0 330.7 722.0 317.0 Z" />
<path fill="#ffffff" stroke="#ffffff" stroke-width="0.09375" opacity="1.00" d=" M 767.0 317.0 C 780.7 317.0 794.3 317.0 808.0 317.0 C 808.0 330.7 808.0 344.3 808.0 358.0 C 794.3 358.0 780.7 358.0 767.0 358.0 C 767.0 344.3 767.0 330.7 767.0 317.0 Z" />
<path fill="#ffffff" stroke="#ffffff" stroke-width="0.09375" opacity="1.00" d=" M 812.0 317.0 C 825.7 317.0 839.3 317.0 853.0 317.0 C 853.0 330.7 853.0 344.3 853.0 358.0 C 839.3 358.0 825.7 358.0 812.0 358.0 C 812.0 344.3 812.0 330.7 812.0 317.0 Z" />
<path fill="#ffffff" stroke="#ffffff" stroke-width="0.09375" opacity="1.00" d=" M 857.0 317.0 C 870.7 317.0 884.3 317.0 898.0 317.0 C 898.0 330.7 898.0 344.3 898.0 358.0 C 884.3 358.0 870.7 358.0 857.0 358.0 C 857.0 344.3 857.0 330.7 857.0 317.0 Z" />
<path fill="#ffffff" stroke="#ffffff" stroke-width="0.09375" opacity="1.00" d=" M 2.0 362.0 C 15.7 362.0 29.3 362.0 43.0 362.0 C 43.0 375.7 43.0 389.3 43.0 403.0 C 29.3 403.0 15.7 403.0 2.0 403.0 C 2.0 389.3 2.0 375.7 2.0 362.0 Z" />
<path fill="#ffffff" stroke="#ffffff" stroke-width="0.09375" opacity="1.00" d=" M 47.0 362.0 C 60.7 362.0 74.3 362.0 88.0 362.0 C 88.0 375.7 88.0 389.3 88.0 403.0 C 74.3 403.0 60.7 403.0 47.0 403.0 C 47.0 389.3 47.0 375.7 47.0 362.0 Z" />
<path fill="#ffffff" stroke="#ffffff" stroke-width="0.09375" opacity="1.00" d=" M 92.0 362.0 C 105.7 362.0 119.3 362.0 133.0 362.0 C 133.0 375.7 133.0 389.3 133.0 403.0 C 119.3 403.0 105.7 403.0 92.0 403.0 C 92.0 389.3 92.0 375.7 92.0 362.0 Z" />
<path fill="#ffffff" stroke="#ffffff" stroke-width="0.09375" opacity="1.00" d=" M 137.0 362.0 C 150.7 362.0 164.3 362.0 178.0 362.0 C 178.0 375.7 178.0 389.3 178.0 403.0 C 164.3 403.0 150.7 403.0 137.0 403.0 C 137.0 389.3 137.0 375.7 137.0 362.0 Z" />
<path fill="#ffffff" stroke="#ffffff" stroke-width="0.09375" opacity="1.00" d=" M 182.0 362.0 C 195.7 362.0 209.3 362.0 223.0 362.0 C 223.0 375.7 223.0 389.3 223.0 403.0 C 209.3 403.0 195.7 403.0 182.0 403.0 C 182.0 389.3 182.0 375.7 182.0 362.0 Z" />
<path fill="#ffffff" stroke="#ffffff" stroke-width="0.09375" opacity="1.00" d=" M 227.0 362.0 C 240.7 362.0 254.3 362.0 268.0 362.0 C 268.0 375.7 268.0 389.3 268.0 403.0 C 254.3 403.0 240.7 403.0 227.0 403.0 C 227.0 389.3 227.0 375.7 227.0 362.0 Z" />
<path fill="#ffffff" stroke="#ffffff" stroke-width="0.09375" opacity="1.00" d=" M 272.0 362.0 C 285.7 362.0 299.3 362.0 313.0 362.0 C 313.0 375.7 313.0 389.3 313.0 403.0 C 299.3 403.0 285.7 403.0 272.0 403.0 C 272.0 389.3 272.0 375.7 272.0 362.0 Z" />
<path fill="#ffffff" stroke="#ffffff" stroke-width="0.09375" opacity="1.00" d=" M 317.0 362.0 C 330.7 362.0 344.3 362.0 358.0 362.0 C 358.0 375.7 358.0 389.3 358.0 403.0 C 344.3 403.0 330.7 403.0 317.0 403.0 C 317.0 389.3 317.0 375.7 317.0 362.0 Z" />
<path fill="#ffffff" stroke="#ffffff" stroke-width="0.09375" opacity="1.00" d=" M 362.0 362.0 C 375.7 362.0 389.3 362.0 403.0 362.0 C 403.0 375.7 403.0 389.3 403.0 403.0 C 389.3 403.0 375.7 403.0 362.0 403.0 C 362.0 389.3 362.0 375.7 362.0 362.0 Z" />
<path fill="#ffffff" stroke="#ffffff" stroke-width="0.09375" opacity="1.00" d=" M 407.0 362.0 C 420.7 362.0 434.3 362.0 448.0 362.0 C 448.0 375.7 448.0 389.3 448.0 403.0 C 434.3 403.0 420.7 403.0 407.0 403.0 C 407.0 389.3 407.0 375.7 407.0 362.0 Z" />
<path fill="#ffffff" stroke="#ffffff" stroke-width="0.09375" opacity="1.00" d=" M 452.0 362.0 C 465.7 362.0 479.3 362.0 493.0 362.0 C 493.0 375.7 493.0 389.3 493.0 403.0 C 479.3 403.0 465.7 403.0 452.0 403.0 C 452.0 389.3 452.0 375.7 452.0 362.0 Z" />
<path fill="#ffffff" stroke="#ffffff" stroke-width="0.09375" opacity="1.00" d=" M 497.0 362.0 C 510.7 362.0 524.3 362.0 538.0 362.0 C 538.0 375.7 538.0 389.3 538.0 403.0 C 524.3 403.0 510.7 403.0 497.0 403.0 C 497.0 389.3 497.0 375.7 497.0 362.0 Z" />
<path fill="#ffffff" stroke="#ffffff" stroke-width="0.09375" opacity="1.00" d=" M 542.0 362.0 C 555.7 362.0 569.3 362.0 583.0 362.0 C 583.0 375.7 583.0 389.3 583.0 403.0 C 569.3 403.0 555.7 403.0 542.0 403.0 C 542.0 389.3 542.0 375.7 542.0 362.0 Z" />
<path fill="#ffffff" stroke="#ffffff" stroke-width="0.09375" opacity="1.00" d=" M 587.0 362.0 C 600.7 362.0 614.3 362.0 628.0 362.0 C 628.0 375.7 628.0 389.3 628.0 403.0 C 614.3 403.0 600.7 403.0 587.0 403.0 C 587.0 389.3 587.0 375.7 587.0 362.0 Z" />
<path fill="#ffffff" stroke="#ffffff" stroke-width="0.09375" opacity="1.00" d=" M 632.0 362.0 C 645.7 362.0 659.3 362.0 673.0 362.0 C 673.0 375.7 673.0 389.3 673.0 403.0 C 659.3 403.0 645.7 403.0 632.0 403.0 C 632.0 389.3 632.0 375.7 632.0 362.0 Z" />
<path fill="#ffffff" stroke="#ffffff" stroke-width="0.09375" opacity="1.00" d=" M 677.0 362.0 C 690.7 362.0 704.3 362.0 718.0 362.0 C 718.0 375.7 718.0 389.3 718.0 403.0 C 704.3 403.0 690.7 403.0 677.0 403.0 C 677.0 389.3 677.0 375.7 677.0 362.0 Z" />
<path fill="#ffffff" stroke="#ffffff" stroke-width="0.09375" opacity="1.00" d=" M 722.0 362.0 C 735.7 362.0 749.3 362.0 763.0 362.0 C 763.0 375.7 763.0 389.3 763.0 403.0 C 749.3 403.0 735.7 403.0 722.0 403.0 C 722.0 389.3 722.0 375.7 722.0 362.0 Z" />
<path fill="#ffffff" stroke="#ffffff" stroke-width="0.09375" opacity="1.00" d=" M 767.0 362.0 C 780.7 362.0 794.3 362.0 808.0 362.0 C 808.0 375.7 808.0 389.3 808.0 403.0 C 794.3 403.0 780.7 403.0 767.0 403.0 C 767.0 389.3 767.0 375.7 767.0 362.0 Z" />
<path fill="#ffffff" stroke="#ffffff" stroke-width="0.09375" opacity="1.00" d=" M 812.0 362.0 C 825.7 362.0 839.3 362.0 853.0 362.0 C 853.0 375.7 853.0 389.3 853.0 403.0 C 839.3 403.0 825.7 403.0 812.0 403.0 C 812.0 389.3 812.0 375.7 812.0 362.0 Z" />
<path fill="#ffffff" stroke="#ffffff" stroke-width="0.09375" opacity="1.00" d=" M 857.0 362.0 C 870.7 362.0 884.3 362.0 898.0 362.0 C 898.0 375.7 898.0 389.3 898.0 403.0 C 884.3 403.0 870.7 403.0 857.0 403.0 C 857.0 389.3 857.0 375.7 857.0 362.0 Z" />
<path fill="#ffffff" stroke="#ffffff" stroke-width="0.09375" opacity="1.00" d=" M 2.0 407.0 C 15.7 407.0 29.3 407.0 43.0 407.0 C 43.0 420.7 43.0 434.3 43.0 448.0 C 29.3 448.0 15.7 448.0 2.0 448.0 C 2.0 434.3 2.0 420.7 2.0 407.0 Z" />
<path fill="#ffffff" stroke="#ffffff" stroke-width="0.09375" opacity="1.00" d=" M 47.0 407.0 C 60.7 407.0 74.3 407.0 88.0 407.0 C 88.0 420.7 88.0 434.3 88.0 448.0 C 74.3 448.0 60.7 448.0 47.0 448.0 C 47.0 434.3 47.0 420.7 47.0 407.0 Z" />
<path fill="#ffffff" stroke="#ffffff" stroke-width="0.09375" opacity="1.00" d=" M 92.0 407.0 C 105.7 407.0 119.3 407.0 133.0 407.0 C 133.0 420.7 133.0 434.3 133.0 448.0 C 119.3 448.0 105.7 448.0 92.0 448.0 C 92.0 434.3 92.0 420.7 92.0 407.0 Z" />
<path fill="#ffffff" stroke="#ffffff" stroke-width="0.09375" opacity="1.00" d=" M 137.0 407.0 C 150.7 407.0 164.3 407.0 178.0 407.0 C 178.0 420.7 178.0 434.3 178.0 448.0 C 164.3 448.0 150.7 448.0 137.0 448.0 C 137.0 434.3 137.0 420.7 137.0 407.0 Z" />
<path fill="#ffffff" stroke="#ffffff" stroke-width="0.09375" opacity="1.00" d=" M 182.0 407.0 C 195.7 407.0 209.3 407.0 223.0 407.0 C 223.0 420.7 223.0 434.3 223.0 448.0 C 209.3 448.0 195.7 448.0 182.0 448.0 C 182.0 434.3 182.0 420.7 182.0 407.0 Z" />
<path fill="#ffffff" stroke="#ffffff" stroke-width="0.09375" opacity="1.00" d=" M 227.0 407.0 C 240.7 407.0 254.3 407.0 268.0 407.0 C 268.0 420.7 268.0 434.3 268.0 448.0 C 254.3 448.0 240.7 448.0 227.0 448.0 C 227.0 434.3 227.0 420.7 227.0 407.0 Z" />
<path fill="#ffffff" stroke="#ffffff" stroke-width="0.09375" opacity="1.00" d=" M 272.0 407.0 C 285.7 407.0 299.3 407.0 313.0 407.0 C 313.0 420.7 313.0 434.3 313.0 448.0 C 299.3 448.0 285.7 448.0 272.0 448.0 C 272.0 434.3 272.0 420.7 272.0 407.0 Z" />
<path fill="#ffffff" stroke="#ffffff" stroke-width="0.09375" opacity="1.00" d=" M 317.0 407.0 C 330.7 407.0 344.3 407.0 358.0 407.0 C 358.0 420.7 358.0 434.3 358.0 448.0 C 344.3 448.0 330.7 448.0 317.0 448.0 C 317.0 434.3 317.0 420.7 317.0 407.0 Z" />
<path fill="#ffffff" stroke="#ffffff" stroke-width="0.09375" opacity="1.00" d=" M 362.0 407.0 C 375.7 407.0 389.3 407.0 403.0 407.0 C 403.0 420.7 403.0 434.3 403.0 448.0 C 389.3 448.0 375.7 448.0 362.0 448.0 C 362.0 434.3 362.0 420.7 362.0 407.0 Z" />
<path fill="#ffffff" stroke="#ffffff" stroke-width="0.09375" opacity="1.00" d=" M 407.0 407.0 C 420.7 407.0 434.3 407.0 448.0 407.0 C 448.0 420.7 448.0 434.3 448.0 448.0 C 434.3 448.0 420.7 448.0 407.0 448.0 C 407.0 434.3 407.0 420.7 407.0 407.0 Z" />
<path fill="#ffffff" stroke="#ffffff" stroke-width="0.09375" opacity="1.00" d=" M 452.0 407.0 C 465.7 407.0 479.3 407.0 493.0 407.0 C 493.0 420.7 493.0 434.3 493.0 448.0 C 479.3 448.0 465.7 448.0 452.0 448.0 C 452.0 434.3 452.0 420.7 452.0 407.0 Z" />
<path fill="#ffffff" stroke="#ffffff" stroke-width="0.09375" opacity="1.00" d=" M 497.0 407.0 C 510.7 407.0 524.3 407.0 538.0 407.0 C 538.0 420.7 538.0 434.3 538.0 448.0 C 524.3 448.0 510.7 448.0 497.0 448.0 C 497.0 434.3 497.0 420.7 497.0 407.0 Z" />
<path fill="#ffffff" stroke="#ffffff" stroke-width="0.09375" opacity="1.00" d=" M 542.0 407.0 C 555.7 407.0 569.3 407.0 583.0 407.0 C 583.0 420.7 583.0 434.3 583.0 448.0 C 569.3 448.0 555.7 448.0 542.0 448.0 C 542.0 434.3 542.0 420.7 542.0 407.0 Z" />
<path fill="#ffffff" stroke="#ffffff" stroke-width="0.09375" opacity="1.00" d=" M 587.0 407.0 C 600.7 407.0 614.3 407.0 628.0 407.0 C 628.0 420.7 628.0 434.3 628.0 448.0 C 614.3 448.0 600.7 448.0 587.0 448.0 C 587.0 434.3 587.0 420.7 587.0 407.0 Z" />
<path fill="#ffffff" stroke="#ffffff" stroke-width="0.09375" opacity="1.00" d=" M 632.0 407.0 C 645.7 407.0 659.3 407.0 673.0 407.0 C 673.0 420.7 673.0 434.3 673.0 448.0 C 659.3 448.0 645.7 448.0 632.0 448.0 C 632.0 434.3 632.0 420.7 632.0 407.0 Z" />
<path fill="#ffffff" stroke="#ffffff" stroke-width="0.09375" opacity="1.00" d=" M 677.0 407.0 C 690.7 407.0 704.3 407.0 718.0 407.0 C 718.0 420.7 718.0 434.3 718.0 448.0 C 704.3 448.0 690.7 448.0 677.0 448.0 C 677.0 434.3 677.0 420.7 677.0 407.0 Z" />
<path fill="#ffffff" stroke="#ffffff" stroke-width="0.09375" opacity="1.00" d=" M 722.0 407.0 C 735.7 407.0 749.3 407.0 763.0 407.0 C 763.0 420.7 763.0 434.3 763.0 448.0 C 749.3 448.0 735.7 448.0 722.0 448.0 C 722.0 434.3 722.0 420.7 722.0 407.0 Z" />
<path fill="#ffffff" stroke="#ffffff" stroke-width="0.09375" opacity="1.00" d=" M 767.0 407.0 C 780.7 407.0 794.3 407.0 808.0 407.0 C 808.0 420.7 808.0 434.3 808.0 448.0 C 794.3 448.0 780.7 448.0 767.0 448.0 C 767.0 434.3 767.0 420.7 767.0 407.0 Z" />
<path fill="#ffffff" stroke="#ffffff" stroke-width="0.09375" opacity="1.00" d=" M 812.0 407.0 C 825.7 407.0 839.3 407.0 853.0 407.0 C 853.0 420.7 853.0 434.3 853.0 448.0 C 839.3 448.0 825.7 448.0 812.0 448.0 C 812.0 434.3 812.0 420.7 812.0 407.0 Z" />
<path fill="#ffffff" stroke="#ffffff" stroke-width="0.09375" opacity="1.00" d=" M 857.0 407.0 C 870.7 407.0 884.3 407.0 898.0 407.0 C 898.0 420.7 898.0 434.3 898.0 448.0 C 884.3 448.0 870.7 448.0 857.0 448.0 C 857.0 434.3 857.0 420.7 857.0 407.0 Z" />
<path fill="#ffffff" stroke="#ffffff" stroke-width="0.09375" opacity="1.00" d=" M 2.0 452.0 C 15.7 452.0 29.3 452.0 43.0 452.0 C 43.0 465.7 43.0 479.3 43.0 493.0 C 29.3 493.0 15.7 493.0 2.0 493.0 C 2.0 479.3 2.0 465.7 2.0 452.0 Z" />
<path fill="#ffffff" stroke="#ffffff" stroke-width="0.09375" opacity="1.00" d=" M 47.0 452.0 C 60.7 452.0 74.3 452.0 88.0 452.0 C 88.0 465.7 88.0 479.3 88.0 493.0 C 74.3 493.0 60.7 493.0 47.0 493.0 C 47.0 479.3 47.0 465.7 47.0 452.0 Z" />
<path fill="#ffffff" stroke="#ffffff" stroke-width="0.09375" opacity="1.00" d=" M 92.0 452.0 C 105.7 452.0 119.3 452.0 133.0 452.0 C 133.0 465.7 133.0 479.3 133.0 493.0 C 119.3 493.0 105.7 493.0 92.0 493.0 C 92.0 479.3 92.0 465.7 92.0 452.0 Z" />
<path fill="#ffffff" stroke="#ffffff" stroke-width="0.09375" opacity="1.00" d=" M 137.0 452.0 C 150.7 452.0 164.3 452.0 178.0 452.0 C 178.0 465.7 178.0 479.3 178.0 493.0 C 164.3 493.0 150.7 493.0 137.0 493.0 C 137.0 479.3 137.0 465.7 137.0 452.0 Z" />
<path fill="#ffffff" stroke="#ffffff" stroke-width="0.09375" opacity="1.00" d=" M 182.0 452.0 C 195.7 452.0 209.3 452.0 223.0 452.0 C 223.0 465.7 223.0 479.3 223.0 493.0 C 209.3 493.0 195.7 493.0 182.0 493.0 C 182.0 479.3 182.0 465.7 182.0 452.0 Z" />
<path fill="#ffffff" stroke="#ffffff" stroke-width="0.09375" opacity="1.00" d=" M 227.0 452.0 C 240.7 452.0 254.3 452.0 268.0 452.0 C 268.0 465.7 268.0 479.3 268.0 493.0 C 254.3 493.0 240.7 493.0 227.0 493.0 C 227.0 479.3 227.0 465.7 227.0 452.0 Z" />
<path fill="#ffffff" stroke="#ffffff" stroke-width="0.09375" opacity="1.00" d=" M 272.0 452.0 C 285.7 452.0 299.3 452.0 313.0 452.0 C 313.0 465.7 313.0 479.3 313.0 493.0 C 299.3 493.0 285.7 493.0 272.0 493.0 C 272.0 479.3 272.0 465.7 272.0 452.0 Z" />
<path fill="#ffffff" stroke="#ffffff" stroke-width="0.09375" opacity="1.00" d=" M 317.0 452.0 C 330.7 452.0 344.3 452.0 358.0 452.0 C 358.0 465.7 358.0 479.3 358.0 493.0 C 344.3 493.0 330.7 493.0 317.0 493.0 C 317.0 479.3 317.0 465.7 317.0 452.0 Z" />
<path fill="#ffffff" stroke="#ffffff" stroke-width="0.09375" opacity="1.00" d=" M 362.0 452.0 C 375.7 452.0 389.3 452.0 403.0 452.0 C 403.0 465.7 403.0 479.3 403.0 493.0 C 389.3 493.0 375.7 493.0 362.0 493.0 C 362.0 479.3 362.0 465.7 362.0 452.0 Z" />
<path fill="#ffffff" stroke="#ffffff" stroke-width="0.09375" opacity="1.00" d=" M 407.0 452.0 C 420.7 452.0 434.3 452.0 448.0 452.0 C 448.0 465.7 448.0 479.3 448.0 493.0 C 434.3 493.0 420.7 493.0 407.0 493.0 C 407.0 479.3 407.0 465.7 407.0 452.0 Z" />
<path fill="#ffffff" stroke="#ffffff" stroke-width="0.09375" opacity="1.00" d=" M 452.0 452.0 C 465.7 452.0 479.3 452.0 493.0 452.0 C 493.0 465.7 493.0 479.3 493.0 493.0 C 479.3 493.0 465.7 493.0 452.0 493.0 C 452.0 479.3 452.0 465.7 452.0 452.0 Z" />
<path fill="#ffffff" stroke="#ffffff" stroke-width="0.09375" opacity="1.00" d=" M 497.0 452.0 C 510.7 452.0 524.3 452.0 538.0 452.0 C 538.0 465.7 538.0 479.3 538.0 493.0 C 524.3 493.0 510.7 493.0 497.0 493.0 C 497.0 479.3 497.0 465.7 497.0 452.0 Z" />
<path fill="#ffffff" stroke="#ffffff" stroke-width="0.09375" opacity="1.00" d=" M 542.0 452.0 C 555.7 452.0 569.3 452.0 583.0 452.0 C 583.0 465.7 583.0 479.3 583.0 493.0 C 569.3 493.0 555.7 493.0 542.0 493.0 C 542.0 479.3 542.0 465.7 542.0 452.0 Z" />
<path fill="#ffffff" stroke="#ffffff" stroke-width="0.09375" opacity="1.00" d=" M 587.0 452.0 C 600.7 452.0 614.3 452.0 628.0 452.0 C 628.0 465.7 628.0 479.3 628.0 493.0 C 614.3 493.0 600.7 493.0 587.0 493.0 C 587.0 479.3 587.0 465.7 587.0 452.0 Z" />
<path fill="#ffffff" stroke="#ffffff" stroke-width="0.09375" opacity="1.00" d=" M 632.0 452.0 C 645.7 452.0 659.3 452.0 673.0 452.0 C 673.0 465.7 673.0 479.3 673.0 493.0 C 659.3 493.0 645.7 493.0 632.0 493.0 C 632.0 479.3 632.0 465.7 632.0 452.0 Z" />
<path fill="#ffffff" stroke="#ffffff" stroke-width="0.09375" opacity="1.00" d=" M 677.0 452.0 C 690.7 452.0 704.3 452.0 718.0 452.0 C 718.0 465.7 718.0 479.3 718.0 493.0 C 704.3 493.0 690.7 493.0 677.0 493.0 C 677.0 479.3 677.0 465.7 677.0 452.0 Z" />
<path fill="#ffffff" stroke="#ffffff" stroke-width="0.09375" opacity="1.00" d=" M 722.0 452.0 C 735.7 452.0 749.3 452.0 763.0 452.0 C 763.0 465.7 763.0 479.3 763.0 493.0 C 749.3 493.0 735.7 493.0 722.0 493.0 C 722.0 479.3 722.0 465.7 722.0 452.0 Z" />
<path fill="#ffffff" stroke="#ffffff" stroke-width="0.09375" opacity="1.00" d=" M 767.0 452.0 C 780.7 452.0 794.3 452.0 808.0 452.0 C 808.0 465.7 808.0 479.3 808.0 493.0 C 794.3 493.0 780.7 493.0 767.0 493.0 C 767.0 479.3 767.0 465.7 767.0 452.0 Z" />
<path fill="#ffffff" stroke="#ffffff" stroke-width="0.09375" opacity="1.00" d=" M 812.0 452.0 C 825.7 452.0 839.3 452.0 853.0 452.0 C 853.0 465.7 853.0 479.3 853.0 493.0 C 839.3 493.0 825.7 493.0 812.0 493.0 C 812.0 479.3 812.0 465.7 812.0 452.0 Z" />
<path fill="#ffffff" stroke="#ffffff" stroke-width="0.09375" opacity="1.00" d=" M 857.0 452.0 C 870.7 452.0 884.3 452.0 898.0 452.0 C 898.0 465.7 898.0 479.3 898.0 493.0 C 884.3 493.0 870.7 493.0 857.0 493.0 C 857.0 479.3 857.0 465.7 857.0 452.0 Z" />
<path fill="#ffffff" stroke="#ffffff" stroke-width="0.09375" opacity="1.00" d=" M 2.0 497.0 C 15.7 497.0 29.3 497.0 43.0 497.0 C 43.0 510.7 43.0 524.3 43.0 538.0 C 29.3 538.0 15.7 538.0 2.0 538.0 C 2.0 524.3 2.0 510.7 2.0 497.0 Z" />
<path fill="#ffffff" stroke="#ffffff" stroke-width="0.09375" opacity="1.00" d=" M 47.0 497.0 C 60.7 497.0 74.3 497.0 88.0 497.0 C 88.0 510.7 88.0 524.3 88.0 538.0 C 74.3 538.0 60.7 538.0 47.0 538.0 C 47.0 524.3 47.0 510.7 47.0 497.0 Z" />
<path fill="#ffffff" stroke="#ffffff" stroke-width="0.09375" opacity="1.00" d=" M 92.0 497.0 C 105.7 497.0 119.3 497.0 133.0 497.0 C 133.0 510.7 133.0 524.3 133.0 538.0 C 119.3 538.0 105.7 538.0 92.0 538.0 C 92.0 524.3 92.0 510.7 92.0 497.0 Z" />
<path fill="#ffffff" stroke="#ffffff" stroke-width="0.09375" opacity="1.00" d=" M 137.0 497.0 C 150.7 497.0 164.3 497.0 178.0 497.0 C 178.0 510.7 178.0 524.3 178.0 538.0 C 164.3 538.0 150.7 538.0 137.0 538.0 C 137.0 524.3 137.0 510.7 137.0 497.0 Z" />
<path fill="#ffffff" stroke="#ffffff" stroke-width="0.09375" opacity="1.00" d=" M 182.0 497.0 C 195.7 497.0 209.3 497.0 223.0 497.0 C 223.0 510.7 223.0 524.3 223.0 538.0 C 209.3 538.0 195.7 538.0 182.0 538.0 C 182.0 524.3 182.0 510.7 182.0 497.0 Z" />
<path fill="#ffffff" stroke="#ffffff" stroke-width="0.09375" opacity="1.00" d=" M 227.0 497.0 C 240.7 497.0 254.3 497.0 268.0 497.0 C 268.0 510.7 268.0 524.3 268.0 538.0 C 254.3 538.0 240.7 538.0 227.0 538.0 C 227.0 524.3 227.0 510.7 227.0 497.0 Z" />
<path fill="#ffffff" stroke="#ffffff" stroke-width="0.09375" opacity="1.00" d=" M 272.0 497.0 C 285.7 497.0 299.3 497.0 313.0 497.0 C 313.0 510.7 313.0 524.3 313.0 538.0 C 299.3 538.0 285.7 538.0 272.0 538.0 C 272.0 524.3 272.0 510.7 272.0 497.0 Z" />
<path fill="#ffffff" stroke="#ffffff" stroke-width="0.09375" opacity="1.00" d=" M 317.0 497.0 C 330.7 497.0 344.3 497.0 358.0 497.0 C 358.0 510.7 358.0 524.3 358.0 538.0 C 344.3 538.0 330.7 538.0 317.0 538.0 C 317.0 524.3 317.0 510.7 317.0 497.0 Z" />
<path fill="#ffffff" stroke="#ffffff" stroke-width="0.09375" opacity="1.00" d=" M 362.0 497.0 C 375.7 497.0 389.3 497.0 403.0 497.0 C 403.0 510.7 403.0 524.3 403.0 538.0 C 389.3 538.0 375.7 538.0 362.0 538.0 C 362.0 524.3 362.0 510.7 362.0 497.0 Z" />
<path fill="#ffffff" stroke="#ffffff" stroke-width="0.09375" opacity="1.00" d=" M 407.0 497.0 C 420.7 497.0 434.3 497.0 448.0 497.0 C 448.0 510.7 448.0 524.3 448.0 538.0 C 434.3 538.0 420.7 538.0 407.0 538.0 C 407.0 524.3 407.0 510.7 407.0 497.0 Z" />
<path fill="#ffffff" stroke="#ffffff" stroke-width="0.09375" opacity="1.00" d=" M 452.0 497.0 C 465.7 497.0 479.3 497.0 493.0 497.0 C 493.0 510.7 493.0 524.3 493.0 538.0 C 479.3 538.0 465.7 538.0 452.0 538.0 C 452.0 524.3 452.0 510.7 452.0 497.0 Z" />
<path fill="#ffffff" stroke="#ffffff" stroke-width="0.09375" opacity="1.00" d=" M 497.0 497.0 C 510.7 497.0 524.3 497.0 538.0 497.0 C 538.0 510.7 538.0 524.3 538.0 538.0 C 524.3 538.0 510.7 538.0 497.0 538.0 C 497.0 524.3 497.0 510.7 497.0 497.0 Z" />
<path fill="#ffffff" stroke="#ffffff" stroke-width="0.09375" opacity="1.00" d=" M 542.0 497.0 C 555.7 497.0 569.3 497.0 583.0 497.0 C 583.0 510.7 583.0 524.3 583.0 538.0 C 569.3 538.0 555.7 538.0 542.0 538.0 C 542.0 524.3 542.0 510.7 542.0 497.0 Z" />
<path fill="#ffffff" stroke="#ffffff" stroke-width="0.09375" opacity="1.00" d=" M 587.0 497.0 C 600.7 497.0 614.3 497.0 628.0 497.0 C 628.0 510.7 628.0 524.3 628.0 538.0 C 614.3 538.0 600.7 538.0 587.0 538.0 C 587.0 524.3 587.0 510.7 587.0 497.0 Z" />
<path fill="#ffffff" stroke="#ffffff" stroke-width="0.09375" opacity="1.00" d=" M 632.0 497.0 C 645.7 497.0 659.3 497.0 673.0 497.0 C 673.0 510.7 673.0 524.3 673.0 538.0 C 659.3 538.0 645.7 538.0 632.0 538.0 C 632.0 524.3 632.0 510.7 632.0 497.0 Z" />
<path fill="#ffffff" stroke="#ffffff" stroke-width="0.09375" opacity="1.00" d=" M 677.0 497.0 C 690.7 497.0 704.3 497.0 718.0 497.0 C 718.0 510.7 718.0 524.3 718.0 538.0 C 704.3 538.0 690.7 538.0 677.0 538.0 C 677.0 524.3 677.0 510.7 677.0 497.0 Z" />
<path fill="#ffffff" stroke="#ffffff" stroke-width="0.09375" opacity="1.00" d=" M 722.0 497.0 C 735.7 497.0 749.3 497.0 763.0 497.0 C 763.0 510.7 763.0 524.3 763.0 538.0 C 749.3 538.0 735.7 538.0 722.0 538.0 C 722.0 524.3 722.0 510.7 722.0 497.0 Z" />
<path fill="#ffffff" stroke="#ffffff" stroke-width="0.09375" opacity="1.00" d=" M 767.0 497.0 C 780.7 497.0 794.3 497.0 808.0 497.0 C 808.0 510.7 808.0 524.3 808.0 538.0 C 794.3 538.0 780.7 538.0 767.0 538.0 C 767.0 524.3 767.0 510.7 767.0 497.0 Z" />
<path fill="#ffffff" stroke="#ffffff" stroke-width="0.09375" opacity="1.00" d=" M 812.0 497.0 C 825.7 497.0 839.3 497.0 853.0 497.0 C 853.0 510.7 853.0 524.3 853.0 538.0 C 839.3 538.0 825.7 538.0 812.0 538.0 C 812.0 524.3 812.0 510.7 812.0 497.0 Z" />
<path fill="#ffffff" stroke="#ffffff" stroke-width="0.09375" opacity="1.00" d=" M 857.0 497.0 C 870.7 497.0 884.3 497.0 898.0 497.0 C 898.0 510.7 898.0 524.3 898.0 538.0 C 884.3 538.0 870.7 538.0 857.0 538.0 C 857.0 524.3 857.0 510.7 857.0 497.0 Z" />
<path fill="#ffffff" stroke="#ffffff" stroke-width="0.09375" opacity="1.00" d=" M 2.0 542.0 C 15.7 542.0 29.3 542.0 43.0 542.0 C 43.0 555.7 43.0 569.3 43.0 583.0 C 29.3 583.0 15.7 583.0 2.0 583.0 C 2.0 569.3 2.0 555.7 2.0 542.0 Z" />
<path fill="#ffffff" stroke="#ffffff" stroke-width="0.09375" opacity="1.00" d=" M 47.0 542.0 C 60.7 542.0 74.3 542.0 88.0 542.0 C 88.0 555.7 88.0 569.3 88.0 583.0 C 74.3 583.0 60.7 583.0 47.0 583.0 C 47.0 569.3 47.0 555.7 47.0 542.0 Z" />
<path fill="#ffffff" stroke="#ffffff" stroke-width="0.09375" opacity="1.00" d=" M 92.0 542.0 C 105.7 542.0 119.3 542.0 133.0 542.0 C 133.0 555.7 133.0 569.3 133.0 583.0 C 119.3 583.0 105.7 583.0 92.0 583.0 C 92.0 569.3 92.0 555.7 92.0 542.0 Z" />
<path fill="#ffffff" stroke="#ffffff" stroke-width="0.09375" opacity="1.00" d=" M 137.0 542.0 C 150.7 542.0 164.3 542.0 178.0 542.0 C 178.0 555.7 178.0 569.3 178.0 583.0 C 164.3 583.0 150.7 583.0 137.0 583.0 C 137.0 569.3 137.0 555.7 137.0 542.0 Z" />
<path fill="#ffffff" stroke="#ffffff" stroke-width="0.09375" opacity="1.00" d=" M 182.0 542.0 C 195.7 542.0 209.3 542.0 223.0 542.0 C 223.0 555.7 223.0 569.3 223.0 583.0 C 209.3 583.0 195.7 583.0 182.0 583.0 C 182.0 569.3 182.0 555.7 182.0 542.0 Z" />
<path fill="#ffffff" stroke="#ffffff" stroke-width="0.09375" opacity="1.00" d=" M 227.0 542.0 C 240.7 542.0 254.3 542.0 268.0 542.0 C 268.0 555.7 268.0 569.3 268.0 583.0 C 254.3 583.0 240.7 583.0 227.0 583.0 C 227.0 569.3 227.0 555.7 227.0 542.0 Z" />
<path fill="#ffffff" stroke="#ffffff" stroke-width="0.09375" opacity="1.00" d=" M 272.0 542.0 C 285.7 542.0 299.3 542.0 313.0 542.0 C 313.0 555.7 313.0 569.3 313.0 583.0 C 299.3 583.0 285.7 583.0 272.0 583.0 C 272.0 569.3 272.0 555.7 272.0 542.0 Z" />
<path fill="#ffffff" stroke="#ffffff" stroke-width="0.09375" opacity="1.00" d=" M 317.0 542.0 C 330.7 542.0 344.3 542.0 358.0 542.0 C 358.0 555.7 358.0 569.3 358.0 583.0 C 344.3 583.0 330.7 583.0 317.0 583.0 C 317.0 569.3 317.0 555.7 317.0 542.0 Z" />
<path fill="#ffffff" stroke="#ffffff" stroke-width="0.09375" opacity="1.00" d=" M 362.0 542.0 C 375.7 542.0 389.3 542.0 403.0 542.0 C 403.0 555.7 403.0 569.3 403.0 583.0 C 389.3 583.0 375.7 583.0 362.0 583.0 C 362.0 569.3 362.0 555.7 362.0 542.0 Z" />
<path fill="#ffffff" stroke="#ffffff" stroke-width="0.09375" opacity="1.00" d=" M 407.0 542.0 C 420.7 542.0 434.3 542.0 448.0 542.0 C 448.0 555.7 448.0 569.3 448.0 583.0 C 434.3 583.0 420.7 583.0 407.0 583.0 C 407.0 569.3 407.0 555.7 407.0 542.0 Z" />
<path fill="#ffffff" stroke="#ffffff" stroke-width="0.09375" opacity="1.00" d=" M 452.0 542.0 C 465.7 542.0 479.3 542.0 493.0 542.0 C 493.0 555.7 493.0 569.3 493.0 583.0 C 479.3 583.0 465.7 583.0 452.0 583.0 C 452.0 569.3 452.0 555.7 452.0 542.0 Z" />
<path fill="#ffffff" stroke="#ffffff" stroke-width="0.09375" opacity="1.00" d=" M 497.0 542.0 C 510.7 542.0 524.3 542.0 538.0 542.0 C 538.0 555.7 538.0 569.3 538.0 583.0 C 524.3 583.0 510.7 583.0 497.0 583.0 C 497.0 569.3 497.0 555.7 497.0 542.0 Z" />
<path fill="#ffffff" stroke="#ffffff" stroke-width="0.09375" opacity="1.00" d=" M 542.0 542.0 C 555.7 542.0 569.3 542.0 583.0 542.0 C 583.0 555.7 583.0 569.3 583.0 583.0 C 569.3 583.0 555.7 583.0 542.0 583.0 C 542.0 569.3 542.0 555.7 542.0 542.0 Z" />
<path fill="#ffffff" stroke="#ffffff" stroke-width="0.09375" opacity="1.00" d=" M 587.0 542.0 C 600.7 542.0 614.3 542.0 628.0 542.0 C 628.0 555.7 628.0 569.3 628.0 583.0 C 614.3 583.0 600.7 583.0 587.0 583.0 C 587.0 569.3 587.0 555.7 587.0 542.0 Z" />
<path fill="#ffffff" stroke="#ffffff" stroke-width="0.09375" opacity="1.00" d=" M 632.0 542.0 C 645.7 542.0 659.3 542.0 673.0 542.0 C 673.0 555.7 673.0 569.3 673.0 583.0 C 659.3 583.0 645.7 583.0 632.0 583.0 C 632.0 569.3 632.0 555.7 632.0 542.0 Z" />
<path fill="#ffffff" stroke="#ffffff" stroke-width="0.09375" opacity="1.00" d=" M 677.0 542.0 C 690.7 542.0 704.3 542.0 718.0 542.0 C 718.0 555.7 718.0 569.3 718.0 583.0 C 704.3 583.0 690.7 583.0 677.0 583.0 C 677.0 569.3 677.0 555.7 677.0 542.0 Z" />
<path fill="#ffffff" stroke="#ffffff" stroke-width="0.09375" opacity="1.00" d=" M 722.0 542.0 C 735.7 542.0 749.3 542.0 763.0 542.0 C 763.0 555.7 763.0 569.3 763.0 583.0 C 749.3 583.0 735.7 583.0 722.0 583.0 C 722.0 569.3 722.0 555.7 722.0 542.0 Z" />
<path fill="#ffffff" stroke="#ffffff" stroke-width="0.09375" opacity="1.00" d=" M 767.0 542.0 C 780.7 542.0 794.3 542.0 808.0 542.0 C 808.0 555.7 808.0 569.3 808.0 583.0 C 794.3 583.0 780.7 583.0 767.0 583.0 C 767.0 569.3 767.0 555.7 767.0 542.0 Z" />
<path fill="#ffffff" stroke="#ffffff" stroke-width="0.09375" opacity="1.00" d=" M 812.0 542.0 C 825.7 542.0 839.3 542.0 853.0 542.0 C 853.0 555.7 853.0 569.3 853.0 583.0 C 839.3 583.0 825.7 583.0 812.0 583.0 C 812.0 569.3 812.0 555.7 812.0 542.0 Z" />
<path fill="#ffffff" stroke="#ffffff" stroke-width="0.09375" opacity="1.00" d=" M 857.0 542.0 C 870.7 542.0 884.3 542.0 898.0 542.0 C 898.0 555.7 898.0 569.3 898.0 583.0 C 884.3 583.0 870.7 583.0 857.0 583.0 C 857.0 569.3 857.0 555.7 857.0 542.0 Z" />
<path fill="#ffffff" stroke="#ffffff" stroke-width="0.09375" opacity="1.00" d=" M 2.0 587.0 C 15.7 587.0 29.3 587.0 43.0 587.0 C 43.0 600.7 43.0 614.3 43.0 628.0 C 29.3 628.0 15.7 628.0 2.0 628.0 C 2.0 614.3 2.0 600.7 2.0 587.0 Z" />
<path fill="#ffffff" stroke="#ffffff" stroke-width="0.09375" opacity="1.00" d=" M 47.0 587.0 C 60.7 587.0 74.3 587.0 88.0 587.0 C 88.0 600.7 88.0 614.3 88.0 628.0 C 74.3 628.0 60.7 628.0 47.0 628.0 C 47.0 614.3 47.0 600.7 47.0 587.0 Z" />
<path fill="#ffffff" stroke="#ffffff" stroke-width="0.09375" opacity="1.00" d=" M 92.0 587.0 C 105.7 587.0 119.3 587.0 133.0 587.0 C 133.0 600.7 133.0 614.3 133.0 628.0 C 119.3 628.0 105.7 628.0 92.0 628.0 C 92.0 614.3 92.0 600.7 92.0 587.0 Z" />
<path fill="#ffffff" stroke="#ffffff" stroke-width="0.09375" opacity="1.00" d=" M 137.0 587.0 C 150.7 587.0 164.3 587.0 178.0 587.0 C 178.0 600.7 178.0 614.3 178.0 628.0 C 164.3 628.0 150.7 628.0 137.0 628.0 C 137.0 614.3 137.0 600.7 137.0 587.0 Z" />
<path fill="#ffffff" stroke="#ffffff" stroke-width="0.09375" opacity="1.00" d=" M 182.0 587.0 C 195.7 587.0 209.3 587.0 223.0 587.0 C 223.0 600.7 223.0 614.3 223.0 628.0 C 209.3 628.0 195.7 628.0 182.0 628.0 C 182.0 614.3 182.0 600.7 182.0 587.0 Z" />
<path fill="#ffffff" stroke="#ffffff" stroke-width="0.09375" opacity="1.00" d=" M 227.0 587.0 C 240.7 587.0 254.3 587.0 268.0 587.0 C 268.0 600.7 268.0 614.3 268.0 628.0 C 254.3 628.0 240.7 628.0 227.0 628.0 C 227.0 614.3 227.0 600.7 227.0 587.0 Z" />
<path fill="#ffffff" stroke="#ffffff" stroke-width="0.09375" opacity="1.00" d=" M 272.0 587.0 C 285.7 587.0 299.3 587.0 313.0 587.0 C 313.0 600.7 313.0 614.3 313.0 628.0 C 299.3 628.0 285.7 628.0 272.0 628.0 C 272.0 614.3 272.0 600.7 272.0 587.0 Z" />
<path fill="#ffffff" stroke="#ffffff" stroke-width="0.09375" opacity="1.00" d=" M 317.0 587.0 C 330.7 587.0 344.3 587.0 358.0 587.0 C 358.0 600.7 358.0 614.3 358.0 628.0 C 344.3 628.0 330.7 628.0 317.0 628.0 C 317.0 614.3 317.0 600.7 317.0 587.0 Z" />
<path fill="#ffffff" stroke="#ffffff" stroke-width="0.09375" opacity="1.00" d=" M 362.0 587.0 C 375.7 587.0 389.3 587.0 403.0 587.0 C 403.0 600.7 403.0 614.3 403.0 628.0 C 389.3 628.0 375.7 628.0 362.0 628.0 C 362.0 614.3 362.0 600.7 362.0 587.0 Z" />
<path fill="#ffffff" stroke="#ffffff" stroke-width="0.09375" opacity="1.00" d=" M 407.0 587.0 C 420.7 587.0 434.3 587.0 448.0 587.0 C 448.0 600.7 448.0 614.3 448.0 628.0 C 434.3 628.0 420.7 628.0 407.0 628.0 C 407.0 614.3 407.0 600.7 407.0 587.0 Z" />
<path fill="#ffffff" stroke="#ffffff" stroke-width="0.09375" opacity="1.00" d=" M 452.0 587.0 C 465.7 587.0 479.3 587.0 493.0 587.0 C 493.0 600.7 493.0 614.3 493.0 628.0 C 479.3 628.0 465.7 628.0 452.0 628.0 C 452.0 614.3 452.0 600.7 452.0 587.0 Z" />
<path fill="#ffffff" stroke="#ffffff" stroke-width="0.09375" opacity="1.00" d=" M 497.0 587.0 C 510.7 587.0 524.3 587.0 538.0 587.0 C 538.0 600.7 538.0 614.3 538.0 628.0 C 524.3 628.0 510.7 628.0 497.0 628.0 C 497.0 614.3 497.0 600.7 497.0 587.0 Z" />
<path fill="#ffffff" stroke="#ffffff" stroke-width="0.09375" opacity="1.00" d=" M 542.0 587.0 C 555.7 587.0 569.3 587.0 583.0 587.0 C 583.0 600.7 583.0 614.3 583.0 628.0 C 569.3 628.0 555.7 628.0 542.0 628.0 C 542.0 614.3 542.0 600.7 542.0 587.0 Z" />
<path fill="#ffffff" stroke="#ffffff" stroke-width="0.09375" opacity="1.00" d=" M 587.0 587.0 C 600.7 587.0 614.3 587.0 628.0 587.0 C 628.0 600.7 628.0 614.3 628.0 628.0 C 614.3 628.0 600.7 628.0 587.0 628.0 C 587.0 614.3 587.0 600.7 587.0 587.0 Z" />
<path fill="#ffffff" stroke="#ffffff" stroke-width="0.09375" opacity="1.00" d=" M 632.0 587.0 C 645.7 587.0 659.3 587.0 673.0 587.0 C 673.0 600.7 673.0 614.3 673.0 628.0 C 659.3 628.0 645.7 628.0 632.0 628.0 C 632.0 614.3 632.0 600.7 632.0 587.0 Z" />
<path fill="#ffffff" stroke="#ffffff" stroke-width="0.09375" opacity="1.00" d=" M 677.0 587.0 C 690.7 587.0 704.3 587.0 718.0 587.0 C 718.0 600.7 718.0 614.3 718.0 628.0 C 704.3 628.0 690.7 628.0 677.0 628.0 C 677.0 614.3 677.0 600.7 677.0 587.0 Z" />
<path fill="#ffffff" stroke="#ffffff" stroke-width="0.09375" opacity="1.00" d=" M 722.0 587.0 C 735.7 587.0 749.3 587.0 763.0 587.0 C 763.0 600.7 763.0 614.3 763.0 628.0 C 749.3 628.0 735.7 628.0 722.0 628.0 C 722.0 614.3 722.0 600.7 722.0 587.0 Z" />
<path fill="#ffffff" stroke="#ffffff" stroke-width="0.09375" opacity="1.00" d=" M 767.0 587.0 C 780.7 587.0 794.3 587.0 808.0 587.0 C 808.0 600.7 808.0 614.3 808.0 628.0 C 794.3 628.0 780.7 628.0 767.0 628.0 C 767.0 614.3 767.0 600.7 767.0 587.0 Z" />
<path fill="#ffffff" stroke="#ffffff" stroke-width="0.09375" opacity="1.00" d=" M 812.0 587.0 C 825.7 587.0 839.3 587.0 853.0 587.0 C 853.0 600.7 853.0 614.3 853.0 628.0 C 839.3 628.0 825.7 628.0 812.0 628.0 C 812.0 614.3 812.0 600.7 812.0 587.0 Z" />
<path fill="#ffffff" stroke="#ffffff" stroke-width="0.09375" opacity="1.00" d=" M 857.0 587.0 C 870.7 587.0 884.3 587.0 898.0 587.0 C 898.0 600.7 898.0 614.3 898.0 628.0 C 884.3 628.0 870.7 628.0 857.0 628.0 C 857.0 614.3 857.0 600.7 857.0 587.0 Z" />
<path fill="#ffffff" stroke="#ffffff" stroke-width="0.09375" opacity="1.00" d=" M 2.0 632.0 C 15.7 632.0 29.3 632.0 43.0 632.0 C 43.0 645.7 43.0 659.3 43.0 673.0 C 29.3 673.0 15.7 673.0 2.0 673.0 C 2.0 659.3 2.0 645.7 2.0 632.0 Z" />
<path fill="#ffffff" stroke="#ffffff" stroke-width="0.09375" opacity="1.00" d=" M 47.0 632.0 C 60.7 632.0 74.3 632.0 88.0 632.0 C 88.0 645.7 88.0 659.3 88.0 673.0 C 74.3 673.0 60.7 673.0 47.0 673.0 C 47.0 659.3 47.0 645.7 47.0 632.0 Z" />
<path fill="#ffffff" stroke="#ffffff" stroke-width="0.09375" opacity="1.00" d=" M 92.0 632.0 C 105.7 632.0 119.3 632.0 133.0 632.0 C 133.0 645.7 133.0 659.3 133.0 673.0 C 119.3 673.0 105.7 673.0 92.0 673.0 C 92.0 659.3 92.0 645.7 92.0 632.0 Z" />
<path fill="#ffffff" stroke="#ffffff" stroke-width="0.09375" opacity="1.00" d=" M 137.0 632.0 C 150.7 632.0 164.3 632.0 178.0 632.0 C 178.0 645.7 178.0 659.3 178.0 673.0 C 164.3 673.0 150.7 673.0 137.0 673.0 C 137.0 659.3 137.0 645.7 137.0 632.0 Z" />
<path fill="#ffffff" stroke="#ffffff" stroke-width="0.09375" opacity="1.00" d=" M 182.0 632.0 C 195.7 632.0 209.3 632.0 223.0 632.0 C 223.0 645.7 223.0 659.3 223.0 673.0 C 209.3 673.0 195.7 673.0 182.0 673.0 C 182.0 659.3 182.0 645.7 182.0 632.0 Z" />
<path fill="#ffffff" stroke="#ffffff" stroke-width="0.09375" opacity="1.00" d=" M 227.0 632.0 C 240.7 632.0 254.3 632.0 268.0 632.0 C 268.0 645.7 268.0 659.3 268.0 673.0 C 254.3 673.0 240.7 673.0 227.0 673.0 C 227.0 659.3 227.0 645.7 227.0 632.0 Z" />
<path fill="#ffffff" stroke="#ffffff" stroke-width="0.09375" opacity="1.00" d=" M 272.0 632.0 C 285.7 632.0 299.3 632.0 313.0 632.0 C 313.0 645.7 313.0 659.3 313.0 673.0 C 299.3 673.0 285.7 673.0 272.0 673.0 C 272.0 659.3 272.0 645.7 272.0 632.0 Z" />
<path fill="#ffffff" stroke="#ffffff" stroke-width="0.09375" opacity="1.00" d=" M 317.0 632.0 C 330.7 632.0 344.3 632.0 358.0 632.0 C 358.0 645.7 358.0 659.3 358.0 673.0 C 344.3 673.0 330.7 673.0 317.0 673.0 C 317.0 659.3 317.0 645.7 317.0 632.0 Z" />
<path fill="#ffffff" stroke="#ffffff" stroke-width="0.09375" opacity="1.00" d=" M 362.0 632.0 C 375.7 632.0 389.3 632.0 403.0 632.0 C 403.0 645.7 403.0 659.3 403.0 673.0 C 389.3 673.0 375.7 673.0 362.0 673.0 C 362.0 659.3 362.0 645.7 362.0 632.0 Z" />
<path fill="#ffffff" stroke="#ffffff" stroke-width="0.09375" opacity="1.00" d=" M 407.0 632.0 C 420.7 632.0 434.3 632.0 448.0 632.0 C 448.0 645.7 448.0 659.3 448.0 673.0 C 434.3 673.0 420.7 673.0 407.0 673.0 C 407.0 659.3 407.0 645.7 407.0 632.0 Z" />
<path fill="#ffffff" stroke="#ffffff" stroke-width="0.09375" opacity="1.00" d=" M 452.0 632.0 C 465.7 632.0 479.3 632.0 493.0 632.0 C 493.0 645.7 493.0 659.3 493.0 673.0 C 479.3 673.0 465.7 673.0 452.0 673.0 C 452.0 659.3 452.0 645.7 452.0 632.0 Z" />
<path fill="#ffffff" stroke="#ffffff" stroke-width="0.09375" opacity="1.00" d=" M 497.0 632.0 C 510.7 632.0 524.3 632.0 538.0 632.0 C 538.0 645.7 538.0 659.3 538.0 673.0 C 524.3 673.0 510.7 673.0 497.0 673.0 C 497.0 659.3 497.0 645.7 497.0 632.0 Z" />
<path fill="#ffffff" stroke="#ffffff" stroke-width="0.09375" opacity="1.00" d=" M 542.0 632.0 C 555.7 632.0 569.3 632.0 583.0 632.0 C 583.0 645.7 583.0 659.3 583.0 673.0 C 569.3 673.0 555.7 673.0 542.0 673.0 C 542.0 659.3 542.0 645.7 542.0 632.0 Z" />
<path fill="#ffffff" stroke="#ffffff" stroke-width="0.09375" opacity="1.00" d=" M 587.0 632.0 C 600.7 632.0 614.3 632.0 628.0 632.0 C 628.0 645.7 628.0 659.3 628.0 673.0 C 614.3 673.0 600.7 673.0 587.0 673.0 C 587.0 659.3 587.0 645.7 587.0 632.0 Z" />
<path fill="#ffffff" stroke="#ffffff" stroke-width="0.09375" opacity="1.00" d=" M 632.0 632.0 C 645.7 632.0 659.3 632.0 673.0 632.0 C 673.0 645.7 673.0 659.3 673.0 673.0 C 659.3 673.0 645.7 673.0 632.0 673.0 C 632.0 659.3 632.0 645.7 632.0 632.0 Z" />
<path fill="#ffffff" stroke="#ffffff" stroke-width="0.09375" opacity="1.00" d=" M 677.0 632.0 C 690.7 632.0 704.3 632.0 718.0 632.0 C 718.0 645.7 718.0 659.3 718.0 673.0 C 704.3 673.0 690.7 673.0 677.0 673.0 C 677.0 659.3 677.0 645.7 677.0 632.0 Z" />
<path fill="#ffffff" stroke="#ffffff" stroke-width="0.09375" opacity="1.00" d=" M 722.0 632.0 C 735.7 632.0 749.3 632.0 763.0 632.0 C 763.0 645.7 763.0 659.3 763.0 673.0 C 749.3 673.0 735.7 673.0 722.0 673.0 C 722.0 659.3 722.0 645.7 722.0 632.0 Z" />
<path fill="#ffffff" stroke="#ffffff" stroke-width="0.09375" opacity="1.00" d=" M 767.0 632.0 C 780.7 632.0 794.3 632.0 808.0 632.0 C 808.0 645.7 808.0 659.3 808.0 673.0 C 794.3 673.0 780.7 673.0 767.0 673.0 C 767.0 659.3 767.0 645.7 767.0 632.0 Z" />
<path fill="#ffffff" stroke="#ffffff" stroke-width="0.09375" opacity="1.00" d=" M 812.0 632.0 C 825.7 632.0 839.3 632.0 853.0 632.0 C 853.0 645.7 853.0 659.3 853.0 673.0 C 839.3 673.0 825.7 673.0 812.0 673.0 C 812.0 659.3 812.0 645.7 812.0 632.0 Z" />
<path fill="#ffffff" stroke="#ffffff" stroke-width="0.09375" opacity="1.00" d=" M 857.0 632.0 C 870.7 632.0 884.3 632.0 898.0 632.0 C 898.0 645.7 898.0 659.3 898.0 673.0 C 884.3 673.0 870.7 673.0 857.0 673.0 C 857.0 659.3 857.0 645.7 857.0 632.0 Z" />
<path fill="#ffffff" stroke="#ffffff" stroke-width="0.09375" opacity="1.00" d=" M 2.0 677.0 C 15.7 677.0 29.3 677.0 43.0 677.0 C 43.0 690.7 43.0 704.3 43.0 718.0 C 29.3 718.0 15.7 718.0 2.0 718.0 C 2.0 704.3 2.0 690.7 2.0 677.0 Z" />
<path fill="#ffffff" stroke="#ffffff" stroke-width="0.09375" opacity="1.00" d=" M 47.0 677.0 C 60.7 677.0 74.3 677.0 88.0 677.0 C 88.0 690.7 88.0 704.3 88.0 718.0 C 74.3 718.0 60.7 718.0 47.0 718.0 C 47.0 704.3 47.0 690.7 47.0 677.0 Z" />
<path fill="#ffffff" stroke="#ffffff" stroke-width="0.09375" opacity="1.00" d=" M 92.0 677.0 C 105.7 677.0 119.3 677.0 133.0 677.0 C 133.0 690.7 133.0 704.3 133.0 718.0 C 119.3 718.0 105.7 718.0 92.0 718.0 C 92.0 704.3 92.0 690.7 92.0 677.0 Z" />
<path fill="#ffffff" stroke="#ffffff" stroke-width="0.09375" opacity="1.00" d=" M 137.0 677.0 C 150.7 677.0 164.3 677.0 178.0 677.0 C 178.0 690.7 178.0 704.3 178.0 718.0 C 164.3 718.0 150.7 718.0 137.0 718.0 C 137.0 704.3 137.0 690.7 137.0 677.0 Z" />
<path fill="#ffffff" stroke="#ffffff" stroke-width="0.09375" opacity="1.00" d=" M 182.0 677.0 C 195.7 677.0 209.3 677.0 223.0 677.0 C 223.0 690.7 223.0 704.3 223.0 718.0 C 209.3 718.0 195.7 718.0 182.0 718.0 C 182.0 704.3 182.0 690.7 182.0 677.0 Z" />
<path fill="#ffffff" stroke="#ffffff" stroke-width="0.09375" opacity="1.00" d=" M 227.0 677.0 C 240.7 677.0 254.3 677.0 268.0 677.0 C 268.0 690.7 268.0 704.3 268.0 718.0 C 254.3 718.0 240.7 718.0 227.0 718.0 C 227.0 704.3 227.0 690.7 227.0 677.0 Z" />
<path fill="#ffffff" stroke="#ffffff" stroke-width="0.09375" opacity="1.00" d=" M 272.0 677.0 C 285.7 677.0 299.3 677.0 313.0 677.0 C 313.0 690.7 313.0 704.3 313.0 718.0 C 299.3 718.0 285.7 718.0 272.0 718.0 C 272.0 704.3 272.0 690.7 272.0 677.0 Z" />
<path fill="#ffffff" stroke="#ffffff" stroke-width="0.09375" opacity="1.00" d=" M 317.0 677.0 C 330.7 677.0 344.3 677.0 358.0 677.0 C 358.0 690.7 358.0 704.3 358.0 718.0 C 344.3 718.0 330.7 718.0 317.0 718.0 C 317.0 704.3 317.0 690.7 317.0 677.0 Z" />
<path fill="#ffffff" stroke="#ffffff" stroke-width="0.09375" opacity="1.00" d=" M 362.0 677.0 C 375.7 677.0 389.3 677.0 403.0 677.0 C 403.0 690.7 403.0 704.3 403.0 718.0 C 389.3 718.0 375.7 718.0 362.0 718.0 C 362.0 704.3 362.0 690.7 362.0 677.0 Z" />
<path fill="#ffffff" stroke="#ffffff" stroke-width="0.09375" opacity="1.00" d=" M 407.0 677.0 C 420.7 677.0 434.3 677.0 448.0 677.0 C 448.0 690.7 448.0 704.3 448.0 718.0 C 434.3 718.0 420.7 718.0 407.0 718.0 C 407.0 704.3 407.0 690.7 407.0 677.0 Z" />
<path fill="#ffffff" stroke="#ffffff" stroke-width="0.09375" opacity="1.00" d=" M 452.0 677.0 C 465.7 677.0 479.3 677.0 493.0 677.0 C 493.0 690.7 493.0 704.3 493.0 718.0 C 479.3 718.0 465.7 718.0 452.0 718.0 C 452.0 704.3 452.0 690.7 452.0 677.0 Z" />
<path fill="#ffffff" stroke="#ffffff" stroke-width="0.09375" opacity="1.00" d=" M 497.0 677.0 C 510.7 677.0 524.3 677.0 538.0 677.0 C 538.0 690.7 538.0 704.3 538.0 718.0 C 524.3 718.0 510.7 718.0 497.0 718.0 C 497.0 704.3 497.0 690.7 497.0 677.0 Z" />
<path fill="#ffffff" stroke="#ffffff" stroke-width="0.09375" opacity="1.00" d=" M 542.0 677.0 C 555.7 677.0 569.3 677.0 583.0 677.0 C 583.0 690.7 583.0 704.3 583.0 718.0 C 569.3 718.0 555.7 718.0 542.0 718.0 C 542.0 704.3 542.0 690.7 542.0 677.0 Z" />
<path fill="#ffffff" stroke="#ffffff" stroke-width="0.09375" opacity="1.00" d=" M 587.0 677.0 C 600.7 677.0 614.3 677.0 628.0 677.0 C 628.0 690.7 628.0 704.3 628.0 718.0 C 614.3 718.0 600.7 718.0 587.0 718.0 C 587.0 704.3 587.0 690.7 587.0 677.0 Z" />
<path fill="#ffffff" stroke="#ffffff" stroke-width="0.09375" opacity="1.00" d=" M 632.0 677.0 C 645.7 677.0 659.3 677.0 673.0 677.0 C 673.0 690.7 673.0 704.3 673.0 718.0 C 659.3 718.0 645.7 718.0 632.0 718.0 C 632.0 704.3 632.0 690.7 632.0 677.0 Z" />
<path fill="#ffffff" stroke="#ffffff" stroke-width="0.09375" opacity="1.00" d=" M 677.0 677.0 C 690.7 677.0 704.3 677.0 718.0 677.0 C 718.0 690.7 718.0 704.3 718.0 718.0 C 704.3 718.0 690.7 718.0 677.0 718.0 C 677.0 704.3 677.0 690.7 677.0 677.0 Z" />
<path fill="#ffffff" stroke="#ffffff" stroke-width="0.09375" opacity="1.00" d=" M 722.0 677.0 C 735.7 677.0 749.3 677.0 763.0 677.0 C 763.0 690.7 763.0 704.3 763.0 718.0 C 749.3 718.0 735.7 718.0 722.0 718.0 C 722.0 704.3 722.0 690.7 722.0 677.0 Z" />
<path fill="#ffffff" stroke="#ffffff" stroke-width="0.09375" opacity="1.00" d=" M 767.0 677.0 C 780.7 677.0 794.3 677.0 808.0 677.0 C 808.0 690.7 808.0 704.3 808.0 718.0 C 794.3 718.0 780.7 718.0 767.0 718.0 C 767.0 704.3 767.0 690.7 767.0 677.0 Z" />
<path fill="#ffffff" stroke="#ffffff" stroke-width="0.09375" opacity="1.00" d=" M 812.0 677.0 C 825.7 677.0 839.3 677.0 853.0 677.0 C 853.0 690.7 853.0 704.3 853.0 718.0 C 839.3 718.0 825.7 718.0 812.0 718.0 C 812.0 704.3 812.0 690.7 812.0 677.0 Z" />
<path fill="#ffffff" stroke="#ffffff" stroke-width="0.09375" opacity="1.00" d=" M 857.0 677.0 C 870.7 677.0 884.3 677.0 898.0 677.0 C 898.0 690.7 898.0 704.3 898.0 718.0 C 884.3 718.0 870.7 718.0 857.0 718.0 C 857.0 704.3 857.0 690.7 857.0 677.0 Z" />
<path fill="#ffffff" stroke="#ffffff" stroke-width="0.09375" opacity="1.00" d=" M 2.0 722.0 C 15.7 722.0 29.3 722.0 43.0 722.0 C 43.0 735.7 43.0 749.3 43.0 763.0 C 29.3 763.0 15.7 763.0 2.0 763.0 C 2.0 749.3 2.0 735.7 2.0 722.0 Z" />
<path fill="#ffffff" stroke="#ffffff" stroke-width="0.09375" opacity="1.00" d=" M 47.0 722.0 C 60.7 722.0 74.3 722.0 88.0 722.0 C 88.0 735.7 88.0 749.3 88.0 763.0 C 74.3 763.0 60.7 763.0 47.0 763.0 C 47.0 749.3 47.0 735.7 47.0 722.0 Z" />
<path fill="#ffffff" stroke="#ffffff" stroke-width="0.09375" opacity="1.00" d=" M 92.0 722.0 C 105.7 722.0 119.3 722.0 133.0 722.0 C 133.0 735.7 133.0 749.3 133.0 763.0 C 119.3 763.0 105.7 763.0 92.0 763.0 C 92.0 749.3 92.0 735.7 92.0 722.0 Z" />
<path fill="#ffffff" stroke="#ffffff" stroke-width="0.09375" opacity="1.00" d=" M 137.0 722.0 C 150.7 722.0 164.3 722.0 178.0 722.0 C 178.0 735.7 178.0 749.3 178.0 763.0 C 164.3 763.0 150.7 763.0 137.0 763.0 C 137.0 749.3 137.0 735.7 137.0 722.0 Z" />
<path fill="#ffffff" stroke="#ffffff" stroke-width="0.09375" opacity="1.00" d=" M 182.0 722.0 C 195.7 722.0 209.3 722.0 223.0 722.0 C 223.0 735.7 223.0 749.3 223.0 763.0 C 209.3 763.0 195.7 763.0 182.0 763.0 C 182.0 749.3 182.0 735.7 182.0 722.0 Z" />
<path fill="#ffffff" stroke="#ffffff" stroke-width="0.09375" opacity="1.00" d=" M 227.0 722.0 C 240.7 722.0 254.3 722.0 268.0 722.0 C 268.0 735.7 268.0 749.3 268.0 763.0 C 254.3 763.0 240.7 763.0 227.0 763.0 C 227.0 749.3 227.0 735.7 227.0 722.0 Z" />
<path fill="#ffffff" stroke="#ffffff" stroke-width="0.09375" opacity="1.00" d=" M 272.0 722.0 C 285.7 722.0 299.3 722.0 313.0 722.0 C 313.0 735.7 313.0 749.3 313.0 763.0 C 299.3 763.0 285.7 763.0 272.0 763.0 C 272.0 749.3 272.0 735.7 272.0 722.0 Z" />
<path fill="#ffffff" stroke="#ffffff" stroke-width="0.09375" opacity="1.00" d=" M 317.0 722.0 C 330.7 722.0 344.3 722.0 358.0 722.0 C 358.0 735.7 358.0 749.3 358.0 763.0 C 344.3 763.0 330.7 763.0 317.0 763.0 C 317.0 749.3 317.0 735.7 317.0 722.0 Z" />
<path fill="#ffffff" stroke="#ffffff" stroke-width="0.09375" opacity="1.00" d=" M 362.0 722.0 C 375.7 722.0 389.3 722.0 403.0 722.0 C 403.0 735.7 403.0 749.3 403.0 763.0 C 389.3 763.0 375.7 763.0 362.0 763.0 C 362.0 749.3 362.0 735.7 362.0 722.0 Z" />
<path fill="#ffffff" stroke="#ffffff" stroke-width="0.09375" opacity="1.00" d=" M 407.0 722.0 C 420.7 722.0 434.3 722.0 448.0 722.0 C 448.0 735.7 448.0 749.3 448.0 763.0 C 434.3 763.0 420.7 763.0 407.0 763.0 C 407.0 749.3 407.0 735.7 407.0 722.0 Z" />
<path fill="#ffffff" stroke="#ffffff" stroke-width="0.09375" opacity="1.00" d=" M 452.0 722.0 C 465.7 722.0 479.3 722.0 493.0 722.0 C 493.0 735.7 493.0 749.3 493.0 763.0 C 479.3 763.0 465.7 763.0 452.0 763.0 C 452.0 749.3 452.0 735.7 452.0 722.0 Z" />
<path fill="#ffffff" stroke="#ffffff" stroke-width="0.09375" opacity="1.00" d=" M 497.0 722.0 C 510.7 722.0 524.3 722.0 538.0 722.0 C 538.0 735.7 538.0 749.3 538.0 763.0 C 524.3 763.0 510.7 763.0 497.0 763.0 C 497.0 749.3 497.0 735.7 497.0 722.0 Z" />
<path fill="#ffffff" stroke="#ffffff" stroke-width="0.09375" opacity="1.00" d=" M 542.0 722.0 C 555.7 722.0 569.3 722.0 583.0 722.0 C 583.0 735.7 583.0 749.3 583.0 763.0 C 569.3 763.0 555.7 763.0 542.0 763.0 C 542.0 749.3 542.0 735.7 542.0 722.0 Z" />
<path fill="#ffffff" stroke="#ffffff" stroke-width="0.09375" opacity="1.00" d=" M 587.0 722.0 C 600.7 722.0 614.3 722.0 628.0 722.0 C 628.0 735.7 628.0 749.3 628.0 763.0 C 614.3 763.0 600.7 763.0 587.0 763.0 C 587.0 749.3 587.0 735.7 587.0 722.0 Z" />
<path fill="#ffffff" stroke="#ffffff" stroke-width="0.09375" opacity="1.00" d=" M 632.0 722.0 C 645.7 722.0 659.3 722.0 673.0 722.0 C 673.0 735.7 673.0 749.3 673.0 763.0 C 659.3 763.0 645.7 763.0 632.0 763.0 C 632.0 749.3 632.0 735.7 632.0 722.0 Z" />
<path fill="#ffffff" stroke="#ffffff" stroke-width="0.09375" opacity="1.00" d=" M 677.0 722.0 C 690.7 722.0 704.3 722.0 718.0 722.0 C 718.0 735.7 718.0 749.3 718.0 763.0 C 704.3 763.0 690.7 763.0 677.0 763.0 C 677.0 749.3 677.0 735.7 677.0 722.0 Z" />
<path fill="#ffffff" stroke="#ffffff" stroke-width="0.09375" opacity="1.00" d=" M 722.0 722.0 C 735.7 722.0 749.3 722.0 763.0 722.0 C 763.0 735.7 763.0 749.3 763.0 763.0 C 749.3 763.0 735.7 763.0 722.0 763.0 C 722.0 749.3 722.0 735.7 722.0 722.0 Z" />
<path fill="#ffffff" stroke="#ffffff" stroke-width="0.09375" opacity="1.00" d=" M 767.0 722.0 C 780.7 722.0 794.3 722.0 808.0 722.0 C 808.0 735.7 808.0 749.3 808.0 763.0 C 794.3 763.0 780.7 763.0 767.0 763.0 C 767.0 749.3 767.0 735.7 767.0 722.0 Z" />
<path fill="#ffffff" stroke="#ffffff" stroke-width="0.09375" opacity="1.00" d=" M 812.0 722.0 C 825.7 722.0 839.3 722.0 853.0 722.0 C 853.0 735.7 853.0 749.3 853.0 763.0 C 839.3 763.0 825.7 763.0 812.0 763.0 C 812.0 749.3 812.0 735.7 812.0 722.0 Z" />
<path fill="#ffffff" stroke="#ffffff" stroke-width="0.09375" opacity="1.00" d=" M 857.0 722.0 C 870.7 722.0 884.3 722.0 898.0 722.0 C 898.0 735.7 898.0 749.3 898.0 763.0 C 884.3 763.0 870.7 763.0 857.0 763.0 C 857.0 749.3 857.0 735.7 857.0 722.0 Z" />
<path fill="#ffffff" stroke="#ffffff" stroke-width="0.09375" opacity="1.00" d=" M 2.0 767.0 C 15.7 767.0 29.3 767.0 43.0 767.0 C 43.0 780.7 43.0 794.3 43.0 808.0 C 29.3 808.0 15.7 808.0 2.0 808.0 C 2.0 794.3 2.0 780.7 2.0 767.0 Z" />
<path fill="#ffffff" stroke="#ffffff" stroke-width="0.09375" opacity="1.00" d=" M 47.0 767.0 C 60.7 767.0 74.3 767.0 88.0 767.0 C 88.0 780.7 88.0 794.3 88.0 808.0 C 74.3 808.0 60.7 808.0 47.0 808.0 C 47.0 794.3 47.0 780.7 47.0 767.0 Z" />
<path fill="#ffffff" stroke="#ffffff" stroke-width="0.09375" opacity="1.00" d=" M 92.0 767.0 C 105.7 767.0 119.3 767.0 133.0 767.0 C 133.0 780.7 133.0 794.3 133.0 808.0 C 119.3 808.0 105.7 808.0 92.0 808.0 C 92.0 794.3 92.0 780.7 92.0 767.0 Z" />
<path fill="#ffffff" stroke="#ffffff" stroke-width="0.09375" opacity="1.00" d=" M 137.0 767.0 C 150.7 767.0 164.3 767.0 178.0 767.0 C 178.0 780.7 178.0 794.3 178.0 808.0 C 164.3 808.0 150.7 808.0 137.0 808.0 C 137.0 794.3 137.0 780.7 137.0 767.0 Z" />
<path fill="#ffffff" stroke="#ffffff" stroke-width="0.09375" opacity="1.00" d=" M 182.0 767.0 C 195.7 767.0 209.3 767.0 223.0 767.0 C 223.0 780.7 223.0 794.3 223.0 808.0 C 209.3 808.0 195.7 808.0 182.0 808.0 C 182.0 794.3 182.0 780.7 182.0 767.0 Z" />
<path fill="#ffffff" stroke="#ffffff" stroke-width="0.09375" opacity="1.00" d=" M 227.0 767.0 C 240.7 767.0 254.3 767.0 268.0 767.0 C 268.0 780.7 268.0 794.3 268.0 808.0 C 254.3 808.0 240.7 808.0 227.0 808.0 C 227.0 794.3 227.0 780.7 227.0 767.0 Z" />
<path fill="#ffffff" stroke="#ffffff" stroke-width="0.09375" opacity="1.00" d=" M 272.0 767.0 C 285.7 767.0 299.3 767.0 313.0 767.0 C 313.0 780.7 313.0 794.3 313.0 808.0 C 299.3 808.0 285.7 808.0 272.0 808.0 C 272.0 794.3 272.0 780.7 272.0 767.0 Z" />
<path fill="#ffffff" stroke="#ffffff" stroke-width="0.09375" opacity="1.00" d=" M 317.0 767.0 C 330.7 767.0 344.3 767.0 358.0 767.0 C 358.0 780.7 358.0 794.3 358.0 808.0 C 344.3 808.0 330.7 808.0 317.0 808.0 C 317.0 794.3 317.0 780.7 317.0 767.0 Z" />
<path fill="#ffffff" stroke="#ffffff" stroke-width="0.09375" opacity="1.00" d=" M 362.0 767.0 C 375.7 767.0 389.3 767.0 403.0 767.0 C 403.0 780.7 403.0 794.3 403.0 808.0 C 389.3 808.0 375.7 808.0 362.0 808.0 C 362.0 794.3 362.0 780.7 362.0 767.0 Z" />
<path fill="#ffffff" stroke="#ffffff" stroke-width="0.09375" opacity="1.00" d=" M 407.0 767.0 C 420.7 767.0 434.3 767.0 448.0 767.0 C 448.0 780.7 448.0 794.3 448.0 808.0 C 434.3 808.0 420.7 808.0 407.0 808.0 C 407.0 794.3 407.0 780.7 407.0 767.0 Z" />
<path fill="#ffffff" stroke="#ffffff" stroke-width="0.09375" opacity="1.00" d=" M 452.0 767.0 C 465.7 767.0 479.3 767.0 493.0 767.0 C 493.0 780.7 493.0 794.3 493.0 808.0 C 479.3 808.0 465.7 808.0 452.0 808.0 C 452.0 794.3 452.0 780.7 452.0 767.0 Z" />
<path fill="#ffffff" stroke="#ffffff" stroke-width="0.09375" opacity="1.00" d=" M 497.0 767.0 C 510.7 767.0 524.3 767.0 538.0 767.0 C 538.0 780.7 538.0 794.3 538.0 808.0 C 524.3 808.0 510.7 808.0 497.0 808.0 C 497.0 794.3 497.0 780.7 497.0 767.0 Z" />
<path fill="#ffffff" stroke="#ffffff" stroke-width="0.09375" opacity="1.00" d=" M 542.0 767.0 C 555.7 767.0 569.3 767.0 583.0 767.0 C 583.0 780.7 583.0 794.3 583.0 808.0 C 569.3 808.0 555.7 808.0 542.0 808.0 C 542.0 794.3 542.0 780.7 542.0 767.0 Z" />
<path fill="#ffffff" stroke="#ffffff" stroke-width="0.09375" opacity="1.00" d=" M 587.0 767.0 C 600.7 767.0 614.3 767.0 628.0 767.0 C 628.0 780.7 628.0 794.3 628.0 808.0 C 614.3 808.0 600.7 808.0 587.0 808.0 C 587.0 794.3 587.0 780.7 587.0 767.0 Z" />
<path fill="#ffffff" stroke="#ffffff" stroke-width="0.09375" opacity="1.00" d=" M 632.0 767.0 C 645.7 767.0 659.3 767.0 673.0 767.0 C 673.0 780.7 673.0 794.3 673.0 808.0 C 659.3 808.0 645.7 808.0 632.0 808.0 C 632.0 794.3 632.0 780.7 632.0 767.0 Z" />
<path fill="#ffffff" stroke="#ffffff" stroke-width="0.09375" opacity="1.00" d=" M 677.0 767.0 C 690.7 767.0 704.3 767.0 718.0 767.0 C 718.0 780.7 718.0 794.3 718.0 808.0 C 704.3 808.0 690.7 808.0 677.0 808.0 C 677.0 794.3 677.0 780.7 677.0 767.0 Z" />
<path fill="#ffffff" stroke="#ffffff" stroke-width="0.09375" opacity="1.00" d=" M 722.0 767.0 C 735.7 767.0 749.3 767.0 763.0 767.0 C 763.0 780.7 763.0 794.3 763.0 808.0 C 749.3 808.0 735.7 808.0 722.0 808.0 C 722.0 794.3 722.0 780.7 722.0 767.0 Z" />
<path fill="#ffffff" stroke="#ffffff" stroke-width="0.09375" opacity="1.00" d=" M 767.0 767.0 C 780.7 767.0 794.3 767.0 808.0 767.0 C 808.0 780.7 808.0 794.3 808.0 808.0 C 794.3 808.0 780.7 808.0 767.0 808.0 C 767.0 794.3 767.0 780.7 767.0 767.0 Z" />
<path fill="#ffffff" stroke="#ffffff" stroke-width="0.09375" opacity="1.00" d=" M 812.0 767.0 C 825.7 767.0 839.3 767.0 853.0 767.0 C 853.0 780.7 853.0 794.3 853.0 808.0 C 839.3 808.0 825.7 808.0 812.0 808.0 C 812.0 794.3 812.0 780.7 812.0 767.0 Z" />
<path fill="#ffffff" stroke="#ffffff" stroke-width="0.09375" opacity="1.00" d=" M 857.0 767.0 C 870.7 767.0 884.3 767.0 898.0 767.0 C 898.0 780.7 898.0 794.3 898.0 808.0 C 884.3 808.0 870.7 808.0 857.0 808.0 C 857.0 794.3 857.0 780.7 857.0 767.0 Z" />
<path fill="#ffffff" stroke="#ffffff" stroke-width="0.09375" opacity="1.00" d=" M 2.0 812.0 C 15.7 812.0 29.3 812.0 43.0 812.0 C 43.0 825.7 43.0 839.3 43.0 853.0 C 29.3 853.0 15.7 853.0 2.0 853.0 C 2.0 839.3 2.0 825.7 2.0 812.0 Z" />
<path fill="#ffffff" stroke="#ffffff" stroke-width="0.09375" opacity="1.00" d=" M 47.0 812.0 C 60.7 812.0 74.3 812.0 88.0 812.0 C 88.0 825.7 88.0 839.3 88.0 853.0 C 74.3 853.0 60.7 853.0 47.0 853.0 C 47.0 839.3 47.0 825.7 47.0 812.0 Z" />
<path fill="#ffffff" stroke="#ffffff" stroke-width="0.09375" opacity="1.00" d=" M 92.0 812.0 C 105.7 812.0 119.3 812.0 133.0 812.0 C 133.0 825.7 133.0 839.3 133.0 853.0 C 119.3 853.0 105.7 853.0 92.0 853.0 C 92.0 839.3 92.0 825.7 92.0 812.0 Z" />
<path fill="#ffffff" stroke="#ffffff" stroke-width="0.09375" opacity="1.00" d=" M 137.0 812.0 C 150.7 812.0 164.3 812.0 178.0 812.0 C 178.0 825.7 178.0 839.3 178.0 853.0 C 164.3 853.0 150.7 853.0 137.0 853.0 C 137.0 839.3 137.0 825.7 137.0 812.0 Z" />
<path fill="#ffffff" stroke="#ffffff" stroke-width="0.09375" opacity="1.00" d=" M 182.0 812.0 C 195.7 812.0 209.3 812.0 223.0 812.0 C 223.0 825.7 223.0 839.3 223.0 853.0 C 209.3 853.0 195.7 853.0 182.0 853.0 C 182.0 839.3 182.0 825.7 182.0 812.0 Z" />
<path fill="#ffffff" stroke="#ffffff" stroke-width="0.09375" opacity="1.00" d=" M 227.0 812.0 C 240.7 812.0 254.3 812.0 268.0 812.0 C 268.0 825.7 268.0 839.3 268.0 853.0 C 254.3 853.0 240.7 853.0 227.0 853.0 C 227.0 839.3 227.0 825.7 227.0 812.0 Z" />
<path fill="#ffffff" stroke="#ffffff" stroke-width="0.09375" opacity="1.00" d=" M 272.0 812.0 C 285.7 812.0 299.3 812.0 313.0 812.0 C 313.0 825.7 313.0 839.3 313.0 853.0 C 299.3 853.0 285.7 853.0 272.0 853.0 C 272.0 839.3 272.0 825.7 272.0 812.0 Z" />
<path fill="#ffffff" stroke="#ffffff" stroke-width="0.09375" opacity="1.00" d=" M 317.0 812.0 C 330.7 812.0 344.3 812.0 358.0 812.0 C 358.0 825.7 358.0 839.3 358.0 853.0 C 344.3 853.0 330.7 853.0 317.0 853.0 C 317.0 839.3 317.0 825.7 317.0 812.0 Z" />
<path fill="#ffffff" stroke="#ffffff" stroke-width="0.09375" opacity="1.00" d=" M 362.0 812.0 C 375.7 812.0 389.3 812.0 403.0 812.0 C 403.0 825.7 403.0 839.3 403.0 853.0 C 389.3 853.0 375.7 853.0 362.0 853.0 C 362.0 839.3 362.0 825.7 362.0 812.0 Z" />
<path fill="#ffffff" stroke="#ffffff" stroke-width="0.09375" opacity="1.00" d=" M 407.0 812.0 C 420.7 812.0 434.3 812.0 448.0 812.0 C 448.0 825.7 448.0 839.3 448.0 853.0 C 434.3 853.0 420.7 853.0 407.0 853.0 C 407.0 839.3 407.0 825.7 407.0 812.0 Z" />
<path fill="#ffffff" stroke="#ffffff" stroke-width="0.09375" opacity="1.00" d=" M 452.0 812.0 C 465.7 812.0 479.3 812.0 493.0 812.0 C 493.0 825.7 493.0 839.3 493.0 853.0 C 479.3 853.0 465.7 853.0 452.0 853.0 C 452.0 839.3 452.0 825.7 452.0 812.0 Z" />
<path fill="#ffffff" stroke="#ffffff" stroke-width="0.09375" opacity="1.00" d=" M 497.0 812.0 C 510.7 812.0 524.3 812.0 538.0 812.0 C 538.0 825.7 538.0 839.3 538.0 853.0 C 524.3 853.0 510.7 853.0 497.0 853.0 C 497.0 839.3 497.0 825.7 497.0 812.0 Z" />
<path fill="#ffffff" stroke="#ffffff" stroke-width="0.09375" opacity="1.00" d=" M 542.0 812.0 C 555.7 812.0 569.3 812.0 583.0 812.0 C 583.0 825.7 583.0 839.3 583.0 853.0 C 569.3 853.0 555.7 853.0 542.0 853.0 C 542.0 839.3 542.0 825.7 542.0 812.0 Z" />
<path fill="#ffffff" stroke="#ffffff" stroke-width="0.09375" opacity="1.00" d=" M 587.0 812.0 C 600.7 812.0 614.3 812.0 628.0 812.0 C 628.0 825.7 628.0 839.3 628.0 853.0 C 614.3 853.0 600.7 853.0 587.0 853.0 C 587.0 839.3 587.0 825.7 587.0 812.0 Z" />
<path fill="#ffffff" stroke="#ffffff" stroke-width="0.09375" opacity="1.00" d=" M 632.0 812.0 C 645.7 812.0 659.3 812.0 673.0 812.0 C 673.0 825.7 673.0 839.3 673.0 853.0 C 659.3 853.0 645.7 853.0 632.0 853.0 C 632.0 839.3 632.0 825.7 632.0 812.0 Z" />
<path fill="#ffffff" stroke="#ffffff" stroke-width="0.09375" opacity="1.00" d=" M 677.0 812.0 C 690.7 812.0 704.3 812.0 718.0 812.0 C 718.0 825.7 718.0 839.3 718.0 853.0 C 704.3 853.0 690.7 853.0 677.0 853.0 C 677.0 839.3 677.0 825.7 677.0 812.0 Z" />
<path fill="#ffffff" stroke="#ffffff" stroke-width="0.09375" opacity="1.00" d=" M 722.0 812.0 C 735.7 812.0 749.3 812.0 763.0 812.0 C 763.0 825.7 763.0 839.3 763.0 853.0 C 749.3 853.0 735.7 853.0 722.0 853.0 C 722.0 839.3 722.0 825.7 722.0 812.0 Z" />
<path fill="#ffffff" stroke="#ffffff" stroke-width="0.09375" opacity="1.00" d=" M 767.0 812.0 C 780.7 812.0 794.3 812.0 808.0 812.0 C 808.0 825.7 808.0 839.3 808.0 853.0 C 794.3 853.0 780.7 853.0 767.0 853.0 C 767.0 839.3 767.0 825.7 767.0 812.0 Z" />
<path fill="#ffffff" stroke="#ffffff" stroke-width="0.09375" opacity="1.00" d=" M 812.0 812.0 C 825.7 812.0 839.3 812.0 853.0 812.0 C 853.0 825.7 853.0 839.3 853.0 853.0 C 839.3 853.0 825.7 853.0 812.0 853.0 C 812.0 839.3 812.0 825.7 812.0 812.0 Z" />
<path fill="#ffffff" stroke="#ffffff" stroke-width="0.09375" opacity="1.00" d=" M 857.0 812.0 C 870.7 812.0 884.3 812.0 898.0 812.0 C 898.0 825.7 898.0 839.3 898.0 853.0 C 884.3 853.0 870.7 853.0 857.0 853.0 C 857.0 839.3 857.0 825.7 857.0 812.0 Z" />
<path fill="#ffffff" stroke="#ffffff" stroke-width="0.09375" opacity="1.00" d=" M 2.0 857.0 C 15.7 857.0 29.3 857.0 43.0 857.0 C 43.0 870.7 43.0 884.3 43.0 898.0 C 29.3 898.0 15.7 898.0 2.0 898.0 C 2.0 884.3 2.0 870.7 2.0 857.0 Z" />
<path fill="#ffffff" stroke="#ffffff" stroke-width="0.09375" opacity="1.00" d=" M 47.0 857.0 C 60.7 857.0 74.3 857.0 88.0 857.0 C 88.0 870.7 88.0 884.3 88.0 898.0 C 74.3 898.0 60.7 898.0 47.0 898.0 C 47.0 884.3 47.0 870.7 47.0 857.0 Z" />
<path fill="#ffffff" stroke="#ffffff" stroke-width="0.09375" opacity="1.00" d=" M 92.0 857.0 C 105.7 857.0 119.3 857.0 133.0 857.0 C 133.0 870.7 133.0 884.3 133.0 898.0 C 119.3 898.0 105.7 898.0 92.0 898.0 C 92.0 884.3 92.0 870.7 92.0 857.0 Z" />
<path fill="#ffffff" stroke="#ffffff" stroke-width="0.09375" opacity="1.00" d=" M 137.0 857.0 C 150.7 857.0 164.3 857.0 178.0 857.0 C 178.0 870.7 178.0 884.3 178.0 898.0 C 164.3 898.0 150.7 898.0 137.0 898.0 C 137.0 884.3 137.0 870.7 137.0 857.0 Z" />
<path fill="#ffffff" stroke="#ffffff" stroke-width="0.09375" opacity="1.00" d=" M 182.0 857.0 C 195.7 857.0 209.3 857.0 223.0 857.0 C 223.0 870.7 223.0 884.3 223.0 898.0 C 209.3 898.0 195.7 898.0 182.0 898.0 C 182.0 884.3 182.0 870.7 182.0 857.0 Z" />
<path fill="#ffffff" stroke="#ffffff" stroke-width="0.09375" opacity="1.00" d=" M 227.0 857.0 C 240.7 857.0 254.3 857.0 268.0 857.0 C 268.0 870.7 268.0 884.3 268.0 898.0 C 254.3 898.0 240.7 898.0 227.0 898.0 C 227.0 884.3 227.0 870.7 227.0 857.0 Z" />
<path fill="#ffffff" stroke="#ffffff" stroke-width="0.09375" opacity="1.00" d=" M 272.0 857.0 C 285.7 857.0 299.3 857.0 313.0 857.0 C 313.0 870.7 313.0 884.3 313.0 898.0 C 299.3 898.0 285.7 898.0 272.0 898.0 C 272.0 884.3 272.0 870.7 272.0 857.0 Z" />
<path fill="#ffffff" stroke="#ffffff" stroke-width="0.09375" opacity="1.00" d=" M 317.0 857.0 C 330.7 857.0 344.3 857.0 358.0 857.0 C 358.0 870.7 358.0 884.3 358.0 898.0 C 344.3 898.0 330.7 898.0 317.0 898.0 C 317.0 884.3 317.0 870.7 317.0 857.0 Z" />
<path fill="#ffffff" stroke="#ffffff" stroke-width="0.09375" opacity="1.00" d=" M 362.0 857.0 C 375.7 857.0 389.3 857.0 403.0 857.0 C 403.0 870.7 403.0 884.3 403.0 898.0 C 389.3 898.0 375.7 898.0 362.0 898.0 C 362.0 884.3 362.0 870.7 362.0 857.0 Z" />
<path fill="#ffffff" stroke="#ffffff" stroke-width="0.09375" opacity="1.00" d=" M 407.0 857.0 C 420.7 857.0 434.3 857.0 448.0 857.0 C 448.0 870.7 448.0 884.3 448.0 898.0 C 434.3 898.0 420.7 898.0 407.0 898.0 C 407.0 884.3 407.0 870.7 407.0 857.0 Z" />
<path fill="#ffffff" stroke="#ffffff" stroke-width="0.09375" opacity="1.00" d=" M 452.0 857.0 C 465.7 857.0 479.3 857.0 493.0 857.0 C 493.0 870.7 493.0 884.3 493.0 898.0 C 479.3 898.0 465.7 898.0 452.0 898.0 C 452.0 884.3 452.0 870.7 452.0 857.0 Z" />
<path fill="#ffffff" stroke="#ffffff" stroke-width="0.09375" opacity="1.00" d=" M 497.0 857.0 C 510.7 857.0 524.3 857.0 538.0 857.0 C 538.0 870.7 538.0 884.3 538.0 898.0 C 524.3 898.0 510.7 898.0 497.0 898.0 C 497.0 884.3 497.0 870.7 497.0 857.0 Z" />
<path fill="#ffffff" stroke="#ffffff" stroke-width="0.09375" opacity="1.00" d=" M 542.0 857.0 C 555.7 857.0 569.3 857.0 583.0 857.0 C 583.0 870.7 583.0 884.3 583.0 898.0 C 569.3 898.0 555.7 898.0 542.0 898.0 C 542.0 884.3 542.0 870.7 542.0 857.0 Z" />
<path fill="#ffffff" stroke="#ffffff" stroke-width="0.09375" opacity="1.00" d=" M 587.0 857.0 C 600.7 857.0 614.3 857.0 628.0 857.0 C 628.0 870.7 628.0 884.3 628.0 898.0 C 614.3 898.0 600.7 898.0 587.0 898.0 C 587.0 884.3 587.0 870.7 587.0 857.0 Z" />
<path fill="#ffffff" stroke="#ffffff" stroke-width="0.09375" opacity="1.00" d=" M 632.0 857.0 C 645.7 857.0 659.3 857.0 673.0 857.0 C 673.0 870.7 673.0 884.3 673.0 898.0 C 659.3 898.0 645.7 898.0 632.0 898.0 C 632.0 884.3 632.0 870.7 632.0 857.0 Z" />
<path fill="#ffffff" stroke="#ffffff" stroke-width="0.09375" opacity="1.00" d=" M 677.0 857.0 C 690.7 857.0 704.3 857.0 718.0 857.0 C 718.0 870.7 718.0 884.3 718.0 898.0 C 704.3 898.0 690.7 898.0 677.0 898.0 C 677.0 884.3 677.0 870.7 677.0 857.0 Z" />
<path fill="#ffffff" stroke="#ffffff" stroke-width="0.09375" opacity="1.00" d=" M 722.0 857.0 C 735.7 857.0 749.3 857.0 763.0 857.0 C 763.0 870.7 763.0 884.3 763.0 898.0 C 749.3 898.0 735.7 898.0 722.0 898.0 C 722.0 884.3 722.0 870.7 722.0 857.0 Z" />
<path fill="#ffffff" stroke="#ffffff" stroke-width="0.09375" opacity="1.00" d=" M 767.0 857.0 C 780.7 857.0 794.3 857.0 808.0 857.0 C 808.0 870.7 808.0 884.3 808.0 898.0 C 794.3 898.0 780.7 898.0 767.0 898.0 C 767.0 884.3 767.0 870.7 767.0 857.0 Z" />
<path fill="#ffffff" stroke="#ffffff" stroke-width="0.09375" opacity="1.00" d=" M 812.0 857.0 C 825.7 857.0 839.3 857.0 853.0 857.0 C 853.0 870.7 853.0 884.3 853.0 898.0 C 839.3 898.0 825.7 898.0 812.0 898.0 C 812.0 884.3 812.0 870.7 812.0 857.0 Z" />
<path fill="#ffffff" stroke="#ffffff" stroke-width="0.09375" opacity="1.00" d=" M 857.0 857.0 C 870.7 857.0 884.3 857.0 898.0 857.0 C 898.0 870.7 898.0 884.3 898.0 898.0 C 884.3 898.0 870.7 898.0 857.0 898.0 C 857.0 884.3 857.0 870.7 857.0 857.0 Z" />
</svg>
